<?xml version="1.0" encoding="UTF-8" standalone="no"?>
<!-- Created with Inkscape (http://www.inkscape.org/) -->

<svg
   xmlns:dc="http://purl.org/dc/elements/1.1/"
   xmlns:cc="http://creativecommons.org/ns#"
   xmlns:rdf="http://www.w3.org/1999/02/22-rdf-syntax-ns#"
   xmlns:svg="http://www.w3.org/2000/svg"
   xmlns="http://www.w3.org/2000/svg"
   xmlns:sodipodi="http://sodipodi.sourceforge.net/DTD/sodipodi-0.dtd"
   xmlns:inkscape="http://www.inkscape.org/namespaces/inkscape"
   width="16"
   height="24"
   viewBox="0 0 16 24"
   version="1.1"
   id="svg8"
   inkscape:version="0.92.3 (2405546, 2018-03-11)"
   sodipodi:docname="u.svg">
  <defs
     id="defs2" />
  <sodipodi:namedview
     id="base"
     pagecolor="#3e3e3e"
     bordercolor="#666666"
     borderopacity="1.0"
     inkscape:pageopacity="0"
     inkscape:pageshadow="2"
     inkscape:zoom="36.125"
     inkscape:cx="2.8469065"
     inkscape:cy="13.098611"
     inkscape:document-units="px"
     inkscape:current-layer="svg8"
     showgrid="true"
     units="px"
     showguides="true"
     inkscape:snap-global="true"
     inkscape:window-width="1662"
     inkscape:window-height="1374"
     inkscape:window-x="67"
     inkscape:window-y="27"
     inkscape:window-maximized="0"
     inkscape:pagecheckerboard="false"
     inkscape:measure-start="0,0"
     inkscape:measure-end="0,0">
    <inkscape:grid
       type="xygrid"
       id="grid815"
       empspacing="4"
       spacingx="1"
       spacingy="1" />
  </sodipodi:namedview>
  <metadata
     id="metadata5">
    <rdf:RDF>
      <cc:Work
         rdf:about="">
        <dc:format>image/svg+xml</dc:format>
        <dc:type
           rdf:resource="http://purl.org/dc/dcmitype/StillImage" />
        <dc:title></dc:title>
      </cc:Work>
    </rdf:RDF>
  </metadata>
  <path
     style="fill:#001931;fill-opacity:1;stroke:none;stroke-opacity:1"
     d="M 1,1 0,2 v 21 l 1,1 h 13 l 1,-1 V 2 L 14,1 Z m 4,3 h 1 v 3 z m 4,0 h 1 L 9,7 Z M 3,8 4,11 H 3 Z m 9,0 v 3 h -1 z m -9,6 h 1 l -1,3 z m 8,0 h 1 v 3 z m -5,4 v 3 H 5 Z m 3,0 1,3 H 9 Z"
     id="path910"
     inkscape:connector-curvature="0"
     sodipodi:nodetypes="ccccccccccccccccccccccccccccccccccccccccc" />
  <path
     style="fill:#162b50;fill-opacity:1;stroke:none;stroke-opacity:1"
     d="m 2,2 1,1 h 9 l 1,-1 z"
     id="path826"
     inkscape:connector-curvature="0"
     sodipodi:nodetypes="ccccc" />
  <path
     style="fill:#ffffff;fill-opacity:1;stroke:none;stroke-opacity:1"
     d="m 1,3 1,1 v 8 H 1 Z"
     id="path828"
     inkscape:connector-curvature="0"
     sodipodi:nodetypes="ccccc" />
  <rect
     style="fill:#162b50;fill-opacity:1;stroke:none;stroke-width:0.99999988;stroke-opacity:1"
     id="rect836"
     width="1"
     height="7"
     x="7"
     y="4" />
  <rect
     style="fill:#162b50;fill-opacity:1;stroke:none;stroke-width:1;stroke-opacity:1"
     id="rect838"
     width="4"
     height="1"
     x="3"
     y="12" />
  <path
     style="fill:#162b50;fill-opacity:1;stroke:none;stroke-opacity:1"
     d="m 9,11 2,-7 h 1 l -2,7 z"
     id="path840"
     inkscape:connector-curvature="0"
     sodipodi:nodetypes="ccccc" />
  <path
     style="fill:#ffffff;fill-opacity:1;stroke:none;stroke-opacity:1"
     d="m 2,13 v 8 l -1,1 v -9 z"
     id="path844"
     inkscape:connector-curvature="0"
     sodipodi:nodetypes="ccccc" />
  <path
     style="fill:#ffffff;fill-opacity:1;stroke:none;stroke-opacity:1"
     d="m 2,23 1,-1 h 9 l 1,1 z"
     id="path846"
     inkscape:connector-curvature="0"
     sodipodi:nodetypes="ccccc" />
  <path
     style="fill:#ffffff;fill-opacity:1;stroke:none;stroke-opacity:1"
     d="m 13,21 1,1 v -9 h -1 z"
     id="path856"
     inkscape:connector-curvature="0"
     sodipodi:nodetypes="ccccc" />
  <path
     style="fill:#ffffff;fill-opacity:1;stroke:none;stroke-opacity:1"
     d="M 13,12 V 4 l 1,-1 v 9 z"
     id="path858"
     inkscape:connector-curvature="0"
     sodipodi:nodetypes="ccccc" />
  <rect
     style="fill:#162b50;fill-opacity:1;stroke:none;stroke-width:1;stroke-opacity:1"
     id="rect860"
     width="4"
     height="1"
     x="8"
     y="12" />
  <rect
     style="fill:#162b50;fill-opacity:1;stroke:none;stroke-width:0.99999988;stroke-opacity:1"
     id="rect836-3"
     width="1"
     height="7"
     x="7"
     y="14" />
  <path
     style="fill:#162b50;fill-opacity:1;stroke:none;stroke-opacity:1"
     d="M 6,11 4,4 H 3 l 2,7 z"
     id="path840-6"
     inkscape:connector-curvature="0"
     sodipodi:nodetypes="ccccc" />
  <path
     style="fill:#162b50;fill-opacity:1;stroke:none;stroke-opacity:1"
     d="m 9,14 2,7 h 1 l -2,-7 z"
     id="path840-7"
     inkscape:connector-curvature="0"
     sodipodi:nodetypes="ccccc" />
  <path
     style="fill:#162b50;fill-opacity:1;stroke:none;stroke-opacity:1"
     d="M 6,14 4,21 H 3 l 2,-7 z"
     id="path840-6-5"
     inkscape:connector-curvature="0"
     sodipodi:nodetypes="ccccc" />
</svg>
