<?xml version="1.0" encoding="UTF-8" standalone="no"?>
<!-- Created with Inkscape (http://www.inkscape.org/) -->

<svg
   xmlns:dc="http://purl.org/dc/elements/1.1/"
   xmlns:cc="http://creativecommons.org/ns#"
   xmlns:rdf="http://www.w3.org/1999/02/22-rdf-syntax-ns#"
   xmlns:svg="http://www.w3.org/2000/svg"
   xmlns="http://www.w3.org/2000/svg"
   xmlns:sodipodi="http://sodipodi.sourceforge.net/DTD/sodipodi-0.dtd"
   xmlns:inkscape="http://www.inkscape.org/namespaces/inkscape"
   width="60"
   height="36"
   viewBox="0 0 60 36"
   version="1.1"
   id="svg8"
   inkscape:version="0.92.3 (2405546, 2018-03-11)"
   sodipodi:docname="stairs.svg">
  <defs
     id="defs2" />
  <sodipodi:namedview
     id="base"
     pagecolor="#3e3e3e"
     bordercolor="#666666"
     borderopacity="1.0"
     inkscape:pageopacity="0"
     inkscape:pageshadow="2"
     inkscape:zoom="5.8563381"
     inkscape:cx="-21.8199"
     inkscape:cy="19.256913"
     inkscape:document-units="px"
     inkscape:current-layer="layer8"
     showgrid="true"
     units="px"
     showguides="false"
     inkscape:snap-global="true"
     inkscape:window-width="1662"
     inkscape:window-height="1374"
     inkscape:window-x="67"
     inkscape:window-y="27"
     inkscape:window-maximized="0"
     inkscape:pagecheckerboard="false">
    <inkscape:grid
       type="xygrid"
       id="grid815"
       empspacing="4"
       spacingx="1"
       spacingy="1" />
  </sodipodi:namedview>
  <metadata
     id="metadata5">
    <rdf:RDF>
      <cc:Work
         rdf:about="">
        <dc:format>image/svg+xml</dc:format>
        <dc:type
           rdf:resource="http://purl.org/dc/dcmitype/StillImage" />
        <dc:title />
      </cc:Work>
    </rdf:RDF>
  </metadata>
  <g
     inkscape:groupmode="layer"
     id="layer8"
     inkscape:label="McGuffin"
     style="display:none">
    <rect
       ry="8"
       style="fill:#6d3b3b;fill-opacity:1;stroke:none;stroke-opacity:1"
       id="rect948-2"
       width="36"
       height="36"
       x="12"
       y="0"
       rx="8" />
    <rect
       style="fill:#40477e;fill-opacity:1;stroke:#000000;stroke-opacity:1"
       id="rect970-1"
       width="28"
       height="28"
       x="16"
       y="4"
       rx="4"
       ry="4" />
    <path
       style="fill:#16192f;fill-opacity:1;stroke:none;stroke-opacity:1"
       d="m 22,9 c 0,0 2,3 8,3 6,0 8,-3 8,-3 0,0 0,5 0,9 0,4 0,9 0,9 0,0 -2,-3 -8,-3 -6,0 -8,3 -8,3 0,0 0,-5 0,-9 0,-4 0,-9 0,-9 z"
       id="path1503"
       inkscape:connector-curvature="0"
       sodipodi:nodetypes="ccccccccc" />
    <rect
       style="fill:#ffffff;fill-opacity:1;stroke:#000000;stroke-width:1;stroke-opacity:1"
       id="rect1484"
       width="5.9999928"
       height="5.9999876"
       x="27"
       y="15"
       rx="4.4999995"
       ry="3.9999998" />
    <path
       style="fill:#595959;fill-opacity:1;stroke:#000000;stroke-opacity:1"
       d="m 24,16 h 12 l 4,-4 V 7 h -5 v 2 h 3 v 3 l -2,2 H 24 L 22,12 V 9 h 3 V 7 h -5 v 5 z"
       id="path1486"
       inkscape:connector-curvature="0"
       sodipodi:nodetypes="ccccccccccccccccc" />
    <path
       style="fill:#595959;fill-opacity:1;stroke:#000000;stroke-opacity:1"
       d="m 24,20 h 12 l 4,4 v 5 h -5 v -2 h 3 V 24 L 36,22 H 24 l -2,2 v 3 h 3 v 2 h -5 v -5 z"
       id="path1486-5"
       inkscape:connector-curvature="0"
       sodipodi:nodetypes="ccccccccccccccccc" />
  </g>
  <g
     inkscape:groupmode="layer"
     id="layer5"
     inkscape:label="Switch A"
     style="display:none">
    <rect
       ry="8"
       style="fill:#6d3b3b;fill-opacity:1;stroke:none;stroke-opacity:1"
       id="rect948-5"
       width="36"
       height="36"
       x="12"
       y="0"
       rx="8" />
    <rect
       style="fill:#40477e;fill-opacity:1;stroke:#000000;stroke-opacity:1"
       id="rect970-9"
       width="28"
       height="28"
       x="16"
       y="4"
       rx="4"
       ry="4" />
    <rect
       style="fill:#857d6c;fill-opacity:1;stroke:#000000;stroke-opacity:1"
       id="rect1460"
       width="20"
       height="20"
       x="20"
       y="8"
       rx="2"
       ry="2" />
    <circle
       style="fill:#fffc18;fill-opacity:1;stroke:#000000;stroke-opacity:1"
       id="path1462"
       cx="30"
       cy="18"
       r="8" />
  </g>
  <g
     inkscape:groupmode="layer"
     id="layer7"
     inkscape:label="Switch B"
     style="display:none">
    <rect
       style="fill:#6d3b3b;fill-opacity:1;stroke:none;stroke-opacity:1"
       id="rect948"
       width="36"
       height="36"
       x="12"
       y="0"
       rx="8"
       ry="8" />
    <rect
       style="fill:#40477e;fill-opacity:1;stroke:#000000;stroke-opacity:1"
       id="rect970"
       width="28"
       height="28"
       x="16"
       y="4"
       rx="4"
       ry="4" />
    <rect
       style="fill:#857d6c;fill-opacity:1;stroke:#000000;stroke-opacity:1"
       id="rect1460-7"
       width="20"
       height="20"
       x="20"
       y="8"
       rx="2"
       ry="2" />
    <circle
       style="fill:#185dff;fill-opacity:1;stroke:#000000;stroke-opacity:1"
       id="path1462-4"
       cx="30"
       cy="18"
       r="8" />
  </g>
  <g
     inkscape:groupmode="layer"
     id="layer6"
     inkscape:label="Empty Corridor"
     style="display:none">
    <rect
       style="fill:#6d3b3b;fill-opacity:1;stroke:none;stroke-width:1;stroke-opacity:1"
       id="rect1169"
       width="12"
       height="24"
       x="45"
       y="6" />
    <path
       style="fill:#40477e;fill-opacity:1;stroke:#000000;stroke-width:0.99999994;stroke-opacity:1"
       d="M 44,26 H 58 V 10 H 44 Z"
       id="path823-2"
       inkscape:connector-curvature="0" />
    <path
       style="fill:#a39d1d;fill-opacity:1;stroke:none;stroke-opacity:1"
       d="m 52,18 4,4 v -8 z"
       id="path870-5-7"
       inkscape:connector-curvature="0"
       sodipodi:nodetypes="cccc" />
    <path
       style="fill:#a39d1d;fill-opacity:1;stroke:none;stroke-opacity:1"
       d="m 50,18 -4,-4 v 8 z"
       id="path870-5-3-0"
       inkscape:connector-curvature="0"
       sodipodi:nodetypes="cccc" />
  </g>
  <g
     inkscape:groupmode="layer"
     id="layer4"
     inkscape:label="Closed Door"
     style="display:none">
    <rect
       style="fill:#6d3b3b;fill-opacity:1;stroke:none;stroke-width:1;stroke-opacity:1"
       id="rect1169-2"
       width="12"
       height="24"
       x="45"
       y="6" />
    <path
       style="fill:#40477e;fill-opacity:1;stroke:#000000;stroke-width:0.99999994;stroke-opacity:1"
       d="M 44,26 H 58 V 10 H 44 Z"
       id="path823-2-2"
       inkscape:connector-curvature="0" />
    <path
       style="display:inline;fill:#a31d1d;fill-opacity:1;stroke:none;stroke-opacity:1"
       d="m 52,18 4,4 v -8 z"
       id="path870-5-7-7-6"
       inkscape:connector-curvature="0"
       sodipodi:nodetypes="cccc" />
    <path
       style="display:inline;fill:#a31d1d;fill-opacity:1;stroke:none;stroke-opacity:1"
       d="m 50,18 -4,-4 v 8 z"
       id="path870-5-3-0-8-7"
       inkscape:connector-curvature="0"
       sodipodi:nodetypes="cccc" />
    <rect
       style="fill:#857d6c;fill-opacity:1;stroke:#000000;stroke-width:0.99999988;stroke-opacity:1"
       id="rect1235"
       width="4"
       height="8"
       x="49"
       y="10" />
    <rect
       style="fill:#857d6c;fill-opacity:1;stroke:#000000;stroke-width:0.99999988;stroke-opacity:1"
       id="rect1235-1"
       width="4"
       height="8"
       x="49"
       y="18" />
  </g>
  <g
     inkscape:groupmode="layer"
     id="layer3"
     inkscape:label="Open Door"
     style="display:none">
    <rect
       style="fill:#6d3b3b;fill-opacity:1;stroke:none;stroke-width:1;stroke-opacity:1"
       id="rect1169-6"
       width="12"
       height="24"
       x="45"
       y="6" />
    <path
       style="fill:#40477e;fill-opacity:1;stroke:#000000;stroke-width:0.99999994;stroke-opacity:1"
       d="M 44,26 H 58 V 10 H 44 Z"
       id="path823-2-1"
       inkscape:connector-curvature="0" />
    <rect
       style="fill:#857d6c;fill-opacity:1;stroke:#000000;stroke-width:0.99999982;stroke-opacity:1"
       id="rect1235-9"
       width="4"
       height="2"
       x="49"
       y="10" />
    <rect
       style="fill:#857d6c;fill-opacity:1;stroke:#000000;stroke-width:0.99999982;stroke-opacity:1"
       id="rect1235-9-4"
       width="4"
       height="2"
       x="49"
       y="24" />
    <path
       style="fill:#a39d1d;fill-opacity:1;stroke:none;stroke-opacity:1"
       d="m 52,18 4,4 v -8 z"
       id="path870-5-7-7"
       inkscape:connector-curvature="0"
       sodipodi:nodetypes="cccc" />
    <path
       style="fill:#a39d1d;fill-opacity:1;stroke:none;stroke-opacity:1"
       d="m 50,18 -4,-4 v 8 z"
       id="path870-5-3-0-8"
       inkscape:connector-curvature="0"
       sodipodi:nodetypes="cccc" />
  </g>
  <g
     inkscape:groupmode="layer"
     id="layer2"
     inkscape:label="Empty Room"
     style="display:none">
    <rect
       ry="8"
       style="fill:#6d3b3b;fill-opacity:1;stroke:none;stroke-opacity:1"
       id="rect948-7"
       width="36"
       height="36"
       x="12"
       y="0"
       rx="8" />
    <rect
       style="fill:#40477e;fill-opacity:1;stroke:#000000;stroke-opacity:1"
       id="rect970-3"
       width="28"
       height="28"
       x="16"
       y="4"
       rx="4"
       ry="4" />
  </g>
  <g
     inkscape:groupmode="layer"
     id="layer9"
     inkscape:label="Ledge"
     style="display:none">
    <path
       style="fill:#6d3b3b;fill-opacity:1;stroke:none;stroke-width:1;stroke-opacity:1"
       d="M 57,6 H 53 V 4 h -8 v 28 h 8 v -2 h 4 z"
       id="rect1169-7"
       inkscape:connector-curvature="0"
       sodipodi:nodetypes="ccccccccc" />
    <path
       style="fill:#40477e;fill-opacity:1;stroke:none;stroke-width:0.99999994;stroke-opacity:1"
       d="m 58,26 h -6 v 2 H 44 V 8 h 8 l -0.002,2 H 58 Z"
       id="path823-2-6"
       inkscape:connector-curvature="0"
       sodipodi:nodetypes="ccccccccc" />
    <path
       style="fill:#a39d1d;fill-opacity:1;stroke:none;stroke-opacity:1"
       d="m 50,18 -4,4 v -8 z"
       id="path870-5-7-0"
       inkscape:connector-curvature="0"
       sodipodi:nodetypes="cccc" />
    <path
       style="fill:#16192f;fill-opacity:1;stroke:none;stroke-opacity:1"
       d="M 58,26 H 52 V 10 h 6 c 0,0 -5,0 -5,8 0,8 5,8 5,8 z"
       id="path1059"
       inkscape:connector-curvature="0" />
    <path
       style="fill:none;fill-opacity:1;stroke:#000000;stroke-width:0.99999994;stroke-opacity:1"
       d="m 58,26 h -6 v 2 H 44 V 8 h 8 l -0.002,2 H 58 Z"
       id="path823-2-6-2"
       inkscape:connector-curvature="0"
       sodipodi:nodetypes="ccccccccc" />
  </g>
  <g
     inkscape:groupmode="layer"
     id="layer10"
     inkscape:label="Stairs"
     style="display:inline">
    <path
       style="fill:#6d3b3b;fill-opacity:1;stroke:none;stroke-opacity:1"
       d="m 52,4 h 5 V 32 H 52 V 31 H 48 V 30 H 45 V 6 h 3 V 5 h 4 z"
       id="path1187"
       inkscape:connector-curvature="0" />
    <path
       style="fill:#40477e;fill-opacity:1;stroke:none;stroke-opacity:1"
       d="m 44,26 h 5 v 1 h 4 v 1 h 5 V 8 h -5 v 1 h -4 v 1 h -5 z"
       id="path1104"
       inkscape:connector-curvature="0"
       sodipodi:nodetypes="ccccccccccccc" />
    <path
       style="fill:#16192f;fill-opacity:1;stroke:none;stroke-opacity:1"
       d="m 49,10 v 16 h -4 c 0,0 3,0 3,-8 0,-8 -3,-8 -3,-8 z"
       id="path1106"
       inkscape:connector-curvature="0" />
    <path
       style="fill:#16192f;fill-opacity:1;stroke:none;stroke-opacity:1"
       d="m 49,9 h 4 v 18 h -4 c 0,0 3,0 3,-9 0,-9 -3,-9 -3,-9 z"
       id="path1108"
       inkscape:connector-curvature="0" />
    <path
       style="fill:none;fill-opacity:1;stroke:#000000;stroke-opacity:1"
       d="m 44,26 h 5 v 1 h 4 v 1 h 5 V 8 h -5 v 1 h -4 v 1 h -5 z"
       id="path1104-8"
       inkscape:connector-curvature="0"
       sodipodi:nodetypes="ccccccccccccc" />
    <path
       style="fill:#a39d1d;fill-opacity:1;stroke:none;stroke-opacity:1"
       d="m 54,18 3,3 v -6 z"
       id="path870-5-7-0-7"
       inkscape:connector-curvature="0"
       sodipodi:nodetypes="cccc" />
    <path
       style="fill:#a39d1d;fill-opacity:1;stroke:none;stroke-opacity:1"
       d="m 47,18 -2,-2 v 4 z"
       id="path1140"
       inkscape:connector-curvature="0" />
  </g>
  <g
     inkscape:groupmode="layer"
     id="layer11"
     inkscape:label="Open Goal"
     style="display:none">
    <path
       style="fill:#6d3b3b;fill-opacity:1;stroke:none;stroke-width:1;stroke-opacity:1"
       d="m 45,6 h 7.1251 L 56,5 c 0,0 4,-1 4,3 v 19 c 0,5 -4,4 -4,4 l -4,-1 h -7 z"
       id="rect1169-0"
       inkscape:connector-curvature="0"
       sodipodi:nodetypes="cccsccccc" />
    <path
       style="fill:#40477e;fill-opacity:1;stroke:none;stroke-width:0.99999994;stroke-opacity:1"
       d="m 44,26 h 8 V 10 h -8 z"
       id="path823-2-3"
       inkscape:connector-curvature="0" />
    <path
       style="fill:#a39d1d;fill-opacity:1;stroke:none;stroke-opacity:1"
       d="m 50,18 -4,-4 v 8 z"
       id="path870-5-3-0-6"
       inkscape:connector-curvature="0"
       sodipodi:nodetypes="cccc" />
    <path
       style="fill:#ffffff;fill-opacity:1;stroke:#000000;stroke-opacity:1"
       d="M 52,10 56,9 V 27 L 52,26 Z"
       id="path1363"
       inkscape:connector-curvature="0" />
    <path
       style="fill:#949ac8;fill-opacity:1;stroke:none;stroke-opacity:1"
       d="m 52,10 -4,1 v 14 l 4,1 z"
       id="path1367"
       inkscape:connector-curvature="0" />
    <path
       style="fill:#d9d22c;fill-opacity:1;stroke:none;stroke-opacity:1"
       d="m 48,16 2,2 -2,2 z"
       id="path1369"
       inkscape:connector-curvature="0" />
    <path
       style="fill:none;fill-opacity:1;stroke:#000000;stroke-width:0.99999994;stroke-opacity:1"
       d="m 44,26 h 8 V 10 h -8 z"
       id="path823-2-3-1"
       inkscape:connector-curvature="0" />
  </g>
  <g
     inkscape:groupmode="layer"
     id="layer12"
     inkscape:label="Closed Goal"
     style="display:none">
    <path
       style="fill:#6d3b3b;fill-opacity:1;stroke:none;stroke-width:1;stroke-opacity:1"
       d="m 45,6 h 7.1251 L 56,5 c 0,0 4,-1 4,3 v 19 c 0,5 -4,4 -4,4 l -4,-1 h -7 z"
       id="rect1169-0-4"
       inkscape:connector-curvature="0"
       sodipodi:nodetypes="cccsccccc" />
    <path
       style="fill:#40477e;fill-opacity:1;stroke:#000000;stroke-width:0.99999994;stroke-opacity:1"
       d="m 44,26 h 8 V 10 h -8 z"
       id="path823-2-3-1-3"
       inkscape:connector-curvature="0" />
    <path
       style="fill:#a31d1d;fill-opacity:1;stroke:none;stroke-opacity:1"
       d="m 50,18 -4,-4 v 8 z"
       id="path870-5-3-0-6-6"
       inkscape:connector-curvature="0"
       sodipodi:nodetypes="cccc" />
    <path
       style="fill:#857d6c;fill-opacity:1;stroke:#000000;stroke-opacity:1"
       d="M 52,10 56,9 V 27 L 52,26 Z"
       id="path1363-5"
       inkscape:connector-curvature="0" />
    <path
       style="fill:#857d6c;fill-opacity:1;stroke:#000000;stroke-opacity:1"
       d="m 52,18 h 4"
       id="path1458"
       inkscape:connector-curvature="0" />
  </g>
  <g
     inkscape:groupmode="layer"
     id="layer13"
     inkscape:label="Walking"
     style="display:none">
    <ellipse
       transform="scale(-1,1)"
       style="fill:#000000;fill-opacity:0.50248754;stroke:none;stroke-width:0.99999994;stroke-opacity:1"
       id="path1513"
       cx="-30.353506"
       cy="17.914454"
       rx="5.8270202"
       ry="5.7843308" />
    <path
       style="fill:#304b66;fill-opacity:1;stroke:#000000;stroke-opacity:1"
       d="m 29.64915,17.1674 c -2.94553,1.83562 -5.25072,2.00638 -5.25072,2.00638 l 0.0854,2.13444 c 0,0 3.15897,-0.0427 5.20803,-1.36604 2.04906,-1.32336 -0.0427,-2.77478 -0.0427,-2.77478 z"
       id="path1509"
       inkscape:connector-curvature="0" />
    <path
       style="fill:#313131;fill-opacity:1;stroke:#000000;stroke-opacity:1"
       d="m 35.21549,19.17807 c 0,0 -3.31329,1.76614 -3.65481,0.31472 -0.34151,-1.45142 1.80239,-3.47798 0.60711,-5.6978 -1.19529,-2.21982 -4.24906,-0.64676 -4.24906,-0.64676 l -0.064,1.1526 c 0,0 0.80376,0.0161 1.14527,0.69917 -0.86648,2.10086 -1.07218,1.63318 -0.0912,4.28935 0,0 0.2203,2.29305 2.7821,2.37842 2.56132,0.0854 4.06704,-1.19439 4.06704,-1.19439 z"
       id="path1505"
       inkscape:connector-curvature="0"
       sodipodi:nodetypes="cccccccccc" />
    <circle
       transform="scale(-1,1)"
       style="fill:#bca325;fill-opacity:1;stroke:#000000;stroke-opacity:1"
       id="path1511"
       cx="-32.391579"
       cy="16.025177"
       r="2.7747715" />
  </g>
</svg>
