<?xml version="1.0" encoding="UTF-8" standalone="no"?>
<!-- Created with Inkscape (http://www.inkscape.org/) -->

<svg
   xmlns:dc="http://purl.org/dc/elements/1.1/"
   xmlns:cc="http://creativecommons.org/ns#"
   xmlns:rdf="http://www.w3.org/1999/02/22-rdf-syntax-ns#"
   xmlns:svg="http://www.w3.org/2000/svg"
   xmlns="http://www.w3.org/2000/svg"
   xmlns:sodipodi="http://sodipodi.sourceforge.net/DTD/sodipodi-0.dtd"
   xmlns:inkscape="http://www.inkscape.org/namespaces/inkscape"
   width="640"
   height="480"
   viewBox="0 0 640 480"
   version="1.1"
   id="svg8"
   inkscape:version="0.92.3 (2405546, 2018-03-11)"
   sodipodi:docname="background.svg">
  <defs
     id="defs2" />
  <sodipodi:namedview
     id="base"
     pagecolor="#000000"
     bordercolor="#666666"
     borderopacity="1.0"
     inkscape:pageopacity="0"
     inkscape:pageshadow="2"
     inkscape:zoom="1.979899"
     inkscape:cx="357.69695"
     inkscape:cy="210.79095"
     inkscape:document-units="px"
     inkscape:current-layer="layer3"
     showgrid="true"
     units="px"
     inkscape:window-width="2493"
     inkscape:window-height="1374"
     inkscape:window-x="67"
     inkscape:window-y="27"
     inkscape:window-maximized="1"
     inkscape:snap-global="false"
     inkscape:pagecheckerboard="false">
    <inkscape:grid
       type="xygrid"
       id="grid4537"
       empspacing="1"
       spacingx="1"
       spacingy="1"
       visible="false" />
  </sodipodi:namedview>
  <metadata
     id="metadata5">
    <rdf:RDF>
      <cc:Work
         rdf:about="">
        <dc:format>image/svg+xml</dc:format>
        <dc:type
           rdf:resource="http://purl.org/dc/dcmitype/StillImage" />
        <dc:title />
      </cc:Work>
    </rdf:RDF>
  </metadata>
  <g
     inkscape:label="Layout"
     inkscape:groupmode="layer"
     id="layer1"
     transform="translate(0,-169.99998)"
     style="display:none">
    <rect
       style="fill:#ff7a00;fill-opacity:1;stroke:none;stroke-width:1.35435808;stroke-opacity:1"
       id="rect4539-3"
       width="107"
       height="240"
       x="1.4210855e-14"
       y="289.99997" />
    <rect
       style="fill:#ff7a00;fill-opacity:1;stroke:none;stroke-width:1.35435808;stroke-opacity:1"
       id="rect4539-3-6"
       width="107"
       height="240"
       x="533"
       y="289.99997" />
    <rect
       style="fill:#ff7a00;fill-opacity:1;stroke:none;stroke-width:1.91087115;stroke-opacity:1"
       id="rect4539-7"
       width="426"
       height="120"
       x="107"
       y="169.99998" />
    <rect
       style="fill:#ff7a00;fill-opacity:1;stroke:none;stroke-width:1.91087115;stroke-opacity:1"
       id="rect4539-7-5"
       width="426"
       height="120"
       x="107"
       y="530" />
    <rect
       style="fill:#00ff1e;fill-opacity:1;stroke:none;stroke-width:1.35435808;stroke-opacity:1"
       id="rect4539-3-3"
       width="107"
       height="240"
       x="-107"
       y="289.99997" />
    <rect
       style="fill:#00ff1e;fill-opacity:1;stroke:none;stroke-width:1.35435808;stroke-opacity:1"
       id="rect4539-3-3-6"
       width="107"
       height="240"
       x="640"
       y="289.99997" />
    <rect
       style="fill:#00ff1e;fill-opacity:1;stroke:none;stroke-width:1.91087115;stroke-opacity:1"
       id="rect4539-7-5-7"
       width="426"
       height="120"
       x="107"
       y="650" />
    <rect
       style="fill:#00ff1e;fill-opacity:1;stroke:none;stroke-width:1.91087115;stroke-opacity:1"
       id="rect4539-7-5-7-5"
       width="426"
       height="120"
       x="107"
       y="49.999977" />
    <path
       style="fill:none;stroke:#000000;stroke-width:1px;stroke-linecap:butt;stroke-linejoin:miter;stroke-opacity:1"
       d="m 115.35714,482.14284 413.92857,-7.85715 v 6.07143 l -415,6.07143 z"
       id="path1551"
       inkscape:connector-curvature="0" />
    <path
       style="fill:none;stroke:#000000;stroke-width:1px;stroke-linecap:butt;stroke-linejoin:miter;stroke-opacity:1"
       d="m 116.07143,425.71427 445.35714,0.71428 1.07143,-6.78571 -447.85714,1.07143 z"
       id="path1553"
       inkscape:connector-curvature="0" />
    <path
       style="fill:none;stroke:#000000;stroke-width:1px;stroke-linecap:butt;stroke-linejoin:miter;stroke-opacity:1"
       d="m 106.78571,374.28569 463.57143,0.71429 -2.5,-5 -461.78571,0.35714 z"
       id="path1555"
       inkscape:connector-curvature="0" />
    <path
       style="fill:none;stroke:#000000;stroke-width:1px;stroke-linecap:butt;stroke-linejoin:miter;stroke-opacity:1"
       d="m 94.285714,330.35712 362.499996,0.35715 -0.35714,-5.71429 H 93.928572 Z"
       id="path1557"
       inkscape:connector-curvature="0" />
    <path
       style="fill:none;stroke:#000000;stroke-width:1px;stroke-linecap:butt;stroke-linejoin:miter;stroke-opacity:1"
       d="m 118.92857,530.71427 388.92857,-1.07143 -3.57143,6.07143 -379.64285,-1.07143 z"
       id="path1559"
       inkscape:connector-curvature="0" />
    <path
       style="fill:none;stroke:#000000;stroke-width:1px;stroke-linecap:butt;stroke-linejoin:miter;stroke-opacity:1"
       d="m 164.28572,574.2857 281.42857,0.71428 -3.92857,4.64286 -275.71429,-0.71429 z"
       id="path1561"
       inkscape:connector-curvature="0" />
    <path
       style="fill:none;stroke:#000000;stroke-width:1px;stroke-linecap:butt;stroke-linejoin:miter;stroke-opacity:1"
       d="m 83.337585,283.81968 266.175195,1.01015 -1.51523,-6.06091 -270.215804,1.01015 z"
       id="path1563"
       inkscape:connector-curvature="0" />
    <path
       style="fill:none;stroke:#000000;stroke-width:1px;stroke-linecap:butt;stroke-linejoin:miter;stroke-opacity:1"
       d="M 72.678572,239.28569 H 218.03571 l -1.42857,-5.71428 -147.678568,1.07143 z"
       id="path1565"
       inkscape:connector-curvature="0" />
    <path
       style="fill:none;stroke:#000000;stroke-width:1px;stroke-linecap:butt;stroke-linejoin:miter;stroke-opacity:1"
       d="M 179.64286,619.64284 180,625.35712 300.53571,624.46427 303.75,619.82141 Z"
       id="path1567"
       inkscape:connector-curvature="0" />
    <path
       style="fill:none;stroke:#000000;stroke-width:1px;stroke-linecap:butt;stroke-linejoin:miter;stroke-opacity:1"
       d="m 307.14286,479.28569 0.71428,-53.21428 6.78572,0.35714 -0.35715,53.21429 z"
       id="path1569"
       inkscape:connector-curvature="0" />
    <path
       style="fill:none;stroke:#000000;stroke-width:1px;stroke-linecap:butt;stroke-linejoin:miter;stroke-opacity:1"
       d="m 307.14286,370.35712 h 6.78571 l -1.78571,-40.71428 -5.35715,-0.35715 z"
       id="path1571"
       inkscape:connector-curvature="0" />
    <path
       style="fill:none;stroke:#000000;stroke-width:1px;stroke-linecap:butt;stroke-linejoin:miter;stroke-opacity:1"
       d="m 306.07143,534.64284 8.21428,-0.35715 -1.42857,40 -7.5,-0.35714 z"
       id="path1573"
       inkscape:connector-curvature="0" />
    <path
       style="fill:none;stroke:#000000;stroke-width:1px;stroke-linecap:butt;stroke-linejoin:miter;stroke-opacity:1"
       d="m 485.35714,481.78569 -2.14285,46.78572 h 5.35714 l 2.5,-48.57143 z"
       id="path1575"
       inkscape:connector-curvature="0" />
    <path
       style="fill:none;stroke:#000000;stroke-width:1px;stroke-linecap:butt;stroke-linejoin:miter;stroke-opacity:1"
       d="m 488.57143,418.92855 7.14286,1.42857 -3.21429,-46.78571 -5.35714,0.35714 z"
       id="path1577"
       inkscape:connector-curvature="0" />
    <path
       style="fill:none;stroke:#000000;stroke-width:1px;stroke-linecap:butt;stroke-linejoin:miter;stroke-opacity:1"
       d="m 111.07143,324.28569 v -40 l -7.14286,-1.07142 2.14286,41.07142 z"
       id="path1579"
       inkscape:connector-curvature="0" />
    <path
       style="fill:none;stroke:#000000;stroke-width:1px;stroke-linecap:butt;stroke-linejoin:miter;stroke-opacity:1"
       d="M 288.92857,278.92855 290,266.07141 l 4.28571,1.42857 -0.71428,11.07143 z"
       id="path1581"
       inkscape:connector-curvature="0" />
  </g>
  <g
     inkscape:groupmode="layer"
     id="layer2"
     inkscape:label="Layout 1"
     style="display:none">
    <path
       style="fill:none;stroke:#000000;stroke-width:1px;stroke-linecap:butt;stroke-linejoin:miter;stroke-opacity:1"
       d="M 68.690373,59.776541 194.95945,488.08122 469.21586,385.04566 584.37325,210.79435 95.964492,21.895821 Z"
       id="path1547"
       inkscape:connector-curvature="0"
       sodipodi:nodetypes="cccccc" />
  </g>
  <g
     inkscape:groupmode="layer"
     id="layer3"
     inkscape:label="Layout 2">
    <path
       style="fill:#0d2f4b;fill-opacity:1;stroke:none;stroke-width:1px;stroke-linecap:butt;stroke-linejoin:miter;stroke-opacity:1"
       d="m 70,64.285714 136.78571,-0.714286 -22.98113,-8.891062 -27.81321,-1.899279 13.4293,-3.66564 -20.66148,-7.993624 -35.5518,-2.175428 6.29308,-9.14434 -21.643327,-8.373484 -16.515679,20.644599 10.962543,8.484321 -18.453833,0.879791 -5.993031,7.491289 z"
       id="path1584"
       inkscape:connector-curvature="0"
       sodipodi:nodetypes="cccccccccccccc" />
    <path
       style="fill:#0d2f4b;fill-opacity:1;stroke:none;stroke-width:1px;stroke-linecap:butt;stroke-linejoin:miter;stroke-opacity:1"
       d="m 72.5,70 144.28571,-1.071429 27.31481,10.141638 -17.63849,4.946812 38.58343,3.775944 23.88311,7.92132 -0.35714,12.857145 L 82.142857,110 l 6.666702,-4.88521 -7.536577,-2.10556 -2.743745,-7.999059 10.901132,-5.759329 -13.339271,-4.354436 z"
       id="path1586"
       inkscape:connector-curvature="0"
       sodipodi:nodetypes="cccccccccccccc" />
    <path
       style="fill:#0d2f4b;fill-opacity:1;stroke:none;stroke-width:1px;stroke-linecap:butt;stroke-linejoin:miter;stroke-opacity:1"
       d="M 294.28571,108.57143 295,97.857142 l 3.57407,4.279248 8.54496,0.0919 13.23811,5.98602 z"
       id="path1588"
       inkscape:connector-curvature="0"
       sodipodi:nodetypes="cccccc" />
    <path
       style="fill:#0d2f4b;fill-opacity:1;stroke:none;stroke-width:1px;stroke-linecap:butt;stroke-linejoin:miter;stroke-opacity:1"
       d="m 112.37947,114.32478 v 40.4061 l 147.16211,0.54206 -5.23932,-8.96901 -0.76926,-10.47894 2.09539,-0.87819 -1.66284,-1.03038 0.87325,-6.58193 39.39809,-2.05771 38.35882,0.9031 21.32344,0.47165 -0.22661,-4.89747 -17.0592,-6.67167 z"
       id="path1590"
       inkscape:connector-curvature="0"
       sodipodi:nodetypes="cccccccccccccc" />
    <path
       style="fill:#0d2f4b;fill-opacity:1;stroke:none;stroke-width:1px;stroke-linecap:butt;stroke-linejoin:miter;stroke-opacity:1"
       d="m 92.146232,113.99827 11.394408,0.074 3.03045,40.4061 -11.111674,0.50508 -3.391013,-12.01598 5.770612,-6.38038 -8.90527,-4.72721 -3.59069,-12.72354 z"
       id="path1592"
       inkscape:connector-curvature="0"
       sodipodi:nodetypes="ccccccccc" />
    <path
       style="fill:#0d2f4b;fill-opacity:1;stroke:none;stroke-width:1px;stroke-linecap:butt;stroke-linejoin:miter;stroke-opacity:1"
       d="m 97.984797,159.5291 165.666743,0.40273 5.04904,4.26923 37.57931,0.37097 1.31156,35.36318 H 110.10663 l -1.60303,-5.34343 1.54489,-3.6599 -4.03209,-3.65381 -1.45448,-5.82522 11.72019,-4.44463 -14.85092,-5.99115 z"
       id="path1594"
       inkscape:connector-curvature="0"
       sodipodi:nodetypes="ccccccccccccc" />
    <path
       style="fill:#0d2f4b;fill-opacity:1;stroke:none;stroke-width:1px;stroke-linecap:butt;stroke-linejoin:miter;stroke-opacity:1"
       d="m 391.0553,164.20106 -78.58727,0.38568 1.43687,34.84339 227.15806,-0.63135 -10.48646,-9.36822 -9.60863,-3.58848 -31.38509,-1.45309 20.35059,-2.66791 -28.87925,-10.78537 -24.46049,-3.08537 11.34858,-1.81146 -13.37356,-4.99455 h -62.37692 z"
       id="path1596"
       inkscape:connector-curvature="0"
       sodipodi:nodetypes="cccccccccccccc" />
    <path
       style="fill:#0d2f4b;fill-opacity:1;stroke:none;stroke-width:1px;stroke-linecap:butt;stroke-linejoin:miter;stroke-opacity:1"
       d="m 552.7215,249.89443 10.95664,-8.33503 -11.52147,-7.2046 20.67661,-6.57343 11.28743,-16.98702 -15.15229,-5.80838 h -76.51905 l 2.43754,31.1657 27.9933,-0.35604 3.91385,7.73518 -3.15501,6.51528 z"
       id="path1598"
       inkscape:connector-curvature="0"
       sodipodi:nodetypes="cccccccccccc" />
    <path
       style="fill:#0d2f4b;fill-opacity:1;stroke:none;stroke-width:1px;stroke-linecap:butt;stroke-linejoin:miter;stroke-opacity:1"
       d="m 530.07253,292.84648 -7.57113,11.38698 -3.89768,-0.14421 1.51821,-13.23375 z"
       id="path1600"
       inkscape:connector-curvature="0"
       sodipodi:nodetypes="ccccc" />
    <path
       style="fill:#0d2f4b;fill-opacity:1;stroke:none;stroke-width:1px;stroke-linecap:butt;stroke-linejoin:miter;stroke-opacity:1"
       d="m 488.66129,249.43268 -1.51522,-44.69925 -375.77675,-0.75761 6.91671,21.31272 19.1207,5.91826 -17.39092,1.53825 2.7866,9.27179 36.38508,8.5306 6.60374,-0.12355 0.25254,-35.73339 11.44847,-1.95571 12.64079,2.40786 0.15572,35.42028 29.16655,-0.2194 0.25148,-5.20394 -4.91525,-5.31149 4.66179,-6.73919 18.33984,0.0623 -0.38527,5.89586 4.00736,4.87857 -4.54263,2.97615 -0.2451,4.08744 71.40716,-0.32743 0.44281,-35.38441 11.43331,-3.23817 11.83736,3.37233 -0.0532,34.87976 28.67098,-0.0663 -1.00749,-16.99338 13.21687,-0.34978 5.65831,8.52871 7.59019,0.50366 1.56734,8.14388 62.25114,-0.55034 0.40172,-34.83218 11.92018,-2.25809 11.91962,2.56563 0.2686,34.53916 z"
       id="path1602"
       inkscape:connector-curvature="0"
       sodipodi:nodetypes="ccccccccccccccccccccccccccccccccccccccc" />
    <path
       style="fill:#0d2f4b;fill-opacity:1;stroke:none;stroke-width:1px;stroke-linecap:butt;stroke-linejoin:miter;stroke-opacity:1"
       d="m 126.77414,255.74613 38.13327,0.75762 -0.25255,34.21892 -31.56498,-13.36488 -2.34622,-8.02847 7.46995,-5.70551 -8.38086,-0.62163 z"
       id="path1604"
       inkscape:connector-curvature="0"
       sodipodi:nodetypes="cccccccc" />
    <path
       style="fill:#0d2f4b;fill-opacity:1;stroke:none;stroke-width:1px;stroke-linecap:butt;stroke-linejoin:miter;stroke-opacity:1"
       d="m 474.96731,311.69231 15.94054,-0.46175 0.78992,6.0319 -0.099,5.76661 10.68403,11.64774 -28.08579,0.49538 z"
       id="path1606"
       inkscape:connector-curvature="0"
       sodipodi:nodetypes="ccccccc" />
    <path
       style="fill:#0d2f4b;fill-opacity:1;stroke:none;stroke-width:1px;stroke-linecap:butt;stroke-linejoin:miter;stroke-opacity:1"
       d="m 165.79129,314.84006 -0.50135,19.84718 -10.35408,0.25254 -8.27068,-11.29851 13.8228,-8.0436 z"
       id="path1608"
       inkscape:connector-curvature="0"
       sodipodi:nodetypes="cccccc" />
    <path
       style="fill:#000000;fill-opacity:1;stroke:none;stroke-width:1px;stroke-linecap:butt;stroke-linejoin:miter;stroke-opacity:1"
       d="m 274.28629,134.15549 0.25254,3.40926 4.23001,-0.37881 0.18941,-3.28299 z"
       id="path973"
       inkscape:connector-curvature="0" />
    <path
       style="fill:#0d2f4b;stroke:none;stroke-width:1px;stroke-linecap:butt;stroke-linejoin:miter;stroke-opacity:1;fill-opacity:1"
       d="m 417.193,146.01831 -26.1377,-0.88388 1.38896,9.97526 46.34075,-0.12627 z"
       id="path1481"
       inkscape:connector-curvature="0" />
    <g
       inkscape:label="Layout"
       id="layer1-5-3"
       transform="translate(249,-289.99998)"
       style="stroke:none;fill:#715313;fill-opacity:1" />
    <path
       style="fill:#0d2f4b;stroke:none;stroke-width:1px;stroke-linecap:butt;stroke-linejoin:miter;stroke-opacity:1;fill-opacity:1"
       d="m 308.34906,255.24106 -0.50507,53.53808 -67.93276,1.51523 -1.01015,-20.70812 18.43528,-2.02031 -17.67767,-4.29315 -1.01015,-20.70813 15.15229,-7.3236 z"
       id="path1591"
       inkscape:connector-curvature="0" />
    <path
       style="fill:#0d2f4b;fill-opacity:1;stroke:none;stroke-width:1px;stroke-linecap:butt;stroke-linejoin:miter;stroke-opacity:1"
       d="m 239.65869,314.33498 68.20324,-1.41062 -0.074,21.8102 -66.43548,-0.10462 z"
       id="path1597"
       inkscape:connector-curvature="0"
       sodipodi:nodetypes="ccccc" />
    <path
       style="fill:#0d2f4b;fill-opacity:1;stroke:none;stroke-width:1px;stroke-linecap:butt;stroke-linejoin:miter;stroke-opacity:1"
       d="m 332.23295,312.19475 -0.0306,22.12401 28.70531,0.34183 -0.53571,-22.85099 z"
       id="path1599"
       inkscape:connector-curvature="0"
       sodipodi:nodetypes="ccccc" />
    <path
       style="fill:#0d2f4b;fill-opacity:1;stroke:none;stroke-width:1px;stroke-linecap:butt;stroke-linejoin:miter;stroke-opacity:1"
       d="m 390.24539,310.78151 0.77293,24.07297 58.49956,-1.3266 0.25254,-22.98097 z"
       id="path1601"
       inkscape:connector-curvature="0"
       sodipodi:nodetypes="ccccc" />
    <path
       style="fill:#0d2f4b;fill-opacity:1;stroke:none;stroke-width:1px;stroke-linecap:butt;stroke-linejoin:miter;stroke-opacity:1"
       d="m 331.96429,308.39286 22.67857,-0.35714 5.48066,-4.1156 -0.12352,-9.63441 -12.14286,-2.14285 -2.5,-4.10715 5.17857,2.85715 8.92858,-1.25 0.17857,-19.10715 -8.57143,-0.89285 8.03571,-4.28572 -5.17857,-9.46429 L 331.60714,255 Z"
       id="path1605"
       inkscape:connector-curvature="0"
       sodipodi:nodetypes="cccccccccccccc" />
    <path
       style="fill:#0d2f4b;fill-opacity:1;stroke:none;stroke-width:1px;stroke-linecap:butt;stroke-linejoin:miter;stroke-opacity:1"
       d="m 448.76244,256.39017 0.75416,49.97717 -60.1028,0.64404 -0.17823,-8.59089 16.50876,-2.52671 -2.1871,-7.16616 -13.72058,-5.42046 -0.12238,-19.98672 14.09421,-6.81669 z"
       id="path1600-0"
       inkscape:connector-curvature="0"
       sodipodi:nodetypes="cccccccccc" />
    <path
       style="fill:#0d2f4b;fill-opacity:1;stroke:none;stroke-width:1px;stroke-linecap:butt;stroke-linejoin:miter;stroke-opacity:1"
       d="m 489.53389,255.92022 11.54617,3.41599 -4.88664,17.0995 -12.10627,4.715 10.21964,2.77679 2.30239,13.26148 -7.57113,7.81555 -14.59555,0.53943 1.00183,-49.61478 z"
       id="path1600-0-2"
       inkscape:connector-curvature="0"
       sodipodi:nodetypes="cccccccccc" />
    <path
       style="fill:#0d2f4b;stroke:none;stroke-width:1px;stroke-linecap:butt;stroke-linejoin:miter;stroke-opacity:1;fill-opacity:1"
       d="m 190.28749,313.95618 26.13769,-0.63135 1.57837,21.0238 -27.90547,0.37881 z"
       id="path1637"
       inkscape:connector-curvature="0" />
    <path
       style="fill:#0d2f4b;fill-opacity:1;stroke:none;stroke-width:1px;stroke-linecap:butt;stroke-linejoin:miter;stroke-opacity:1"
       d="m 534.32983,256.15233 14.22474,8.41599 -9.35092,14.06379 -16.01676,-5.03773 3.24371,-5.42046 -5.12238,-7.66529 1.59421,-4.67384 z"
       id="path1600-3"
       inkscape:connector-curvature="0"
       sodipodi:nodetypes="cccccccc" />
    <path
       style="fill:#0d2f4b;fill-opacity:1;stroke:none;stroke-width:1px;stroke-linecap:butt;stroke-linejoin:miter;stroke-opacity:1"
       d="m 165.53875,310.54691 -22.60216,0.50508 -4.02628,-13.77741 26.09899,-2.36242 z"
       id="path1604-7"
       inkscape:connector-curvature="0"
       sodipodi:nodetypes="ccccc" />
    <path
       style="fill:#0d2f4b;fill-opacity:1;stroke:none;stroke-width:1px;stroke-linecap:butt;stroke-linejoin:miter;stroke-opacity:1"
       d="m 190.54002,255.74613 33.96639,-0.25253 -11.22184,6.08657 0.82036,11.59445 -10.17501,2.53058 11.17819,11.64779 1.56961,22.18377 -25.50635,0.37881 z"
       id="path1604-5"
       inkscape:connector-curvature="0"
       sodipodi:nodetypes="ccccccccc" />
  </g>
</svg>
