<?xml version="1.0" encoding="UTF-8" standalone="no"?>
<!-- Created with Inkscape (http://www.inkscape.org/) -->

<svg
   xmlns:dc="http://purl.org/dc/elements/1.1/"
   xmlns:cc="http://creativecommons.org/ns#"
   xmlns:rdf="http://www.w3.org/1999/02/22-rdf-syntax-ns#"
   xmlns:svg="http://www.w3.org/2000/svg"
   xmlns="http://www.w3.org/2000/svg"
   xmlns:sodipodi="http://sodipodi.sourceforge.net/DTD/sodipodi-0.dtd"
   xmlns:inkscape="http://www.inkscape.org/namespaces/inkscape"
   width="640"
   height="480"
   viewBox="0 0 640 480"
   version="1.1"
   id="svg8"
   inkscape:version="0.92.3 (2405546, 2018-03-11)"
   sodipodi:docname="foreground.svg">
  <defs
     id="defs2" />
  <sodipodi:namedview
     id="base"
     pagecolor="#000000"
     bordercolor="#666666"
     borderopacity="1.0"
     inkscape:pageopacity="0"
     inkscape:pageshadow="2"
     inkscape:zoom="3.959798"
     inkscape:cx="310.23685"
     inkscape:cy="322.06852"
     inkscape:document-units="px"
     inkscape:current-layer="layer3"
     showgrid="true"
     units="px"
     inkscape:window-width="738"
     inkscape:window-height="461"
     inkscape:window-x="256"
     inkscape:window-y="428"
     inkscape:window-maximized="0"
     inkscape:snap-global="false"
     inkscape:pagecheckerboard="false">
    <inkscape:grid
       type="xygrid"
       id="grid4537"
       empspacing="1"
       spacingx="1"
       spacingy="1"
       visible="false" />
  </sodipodi:namedview>
  <metadata
     id="metadata5">
    <rdf:RDF>
      <cc:Work
         rdf:about="">
        <dc:format>image/svg+xml</dc:format>
        <dc:type
           rdf:resource="http://purl.org/dc/dcmitype/StillImage" />
        <dc:title></dc:title>
      </cc:Work>
    </rdf:RDF>
  </metadata>
  <g
     inkscape:label="Layout"
     inkscape:groupmode="layer"
     id="layer1"
     transform="translate(0,-169.99998)"
     style="display:none">
    <rect
       style="fill:#ff7a00;fill-opacity:1;stroke:none;stroke-width:1.35435808;stroke-opacity:1"
       id="rect4539-3"
       width="107"
       height="240"
       x="1.4210855e-14"
       y="289.99997" />
    <rect
       style="fill:#ff7a00;fill-opacity:1;stroke:none;stroke-width:1.35435808;stroke-opacity:1"
       id="rect4539-3-6"
       width="107"
       height="240"
       x="533"
       y="289.99997" />
    <rect
       style="fill:#ff7a00;fill-opacity:1;stroke:none;stroke-width:1.91087115;stroke-opacity:1"
       id="rect4539-7"
       width="426"
       height="120"
       x="107"
       y="169.99998" />
    <rect
       style="fill:#ff7a00;fill-opacity:1;stroke:none;stroke-width:1.91087115;stroke-opacity:1"
       id="rect4539-7-5"
       width="426"
       height="120"
       x="107"
       y="530" />
    <rect
       style="fill:#00ff1e;fill-opacity:1;stroke:none;stroke-width:1.35435808;stroke-opacity:1"
       id="rect4539-3-3"
       width="107"
       height="240"
       x="-107"
       y="289.99997" />
    <rect
       style="fill:#00ff1e;fill-opacity:1;stroke:none;stroke-width:1.35435808;stroke-opacity:1"
       id="rect4539-3-3-6"
       width="107"
       height="240"
       x="640"
       y="289.99997" />
    <rect
       style="fill:#00ff1e;fill-opacity:1;stroke:none;stroke-width:1.91087115;stroke-opacity:1"
       id="rect4539-7-5-7"
       width="426"
       height="120"
       x="107"
       y="650" />
    <rect
       style="fill:#00ff1e;fill-opacity:1;stroke:none;stroke-width:1.91087115;stroke-opacity:1"
       id="rect4539-7-5-7-5"
       width="426"
       height="120"
       x="107"
       y="49.999977" />
    <path
       style="fill:none;stroke:#000000;stroke-width:1px;stroke-linecap:butt;stroke-linejoin:miter;stroke-opacity:1"
       d="m 115.35714,482.14284 413.92857,-7.85715 v 6.07143 l -415,6.07143 z"
       id="path1551"
       inkscape:connector-curvature="0" />
    <path
       style="fill:none;stroke:#000000;stroke-width:1px;stroke-linecap:butt;stroke-linejoin:miter;stroke-opacity:1"
       d="m 116.07143,425.71427 445.35714,0.71428 1.07143,-6.78571 -447.85714,1.07143 z"
       id="path1553"
       inkscape:connector-curvature="0" />
    <path
       style="fill:none;stroke:#000000;stroke-width:1px;stroke-linecap:butt;stroke-linejoin:miter;stroke-opacity:1"
       d="m 106.78571,374.28569 463.57143,0.71429 -2.5,-5 -461.78571,0.35714 z"
       id="path1555"
       inkscape:connector-curvature="0" />
    <path
       style="fill:none;stroke:#000000;stroke-width:1px;stroke-linecap:butt;stroke-linejoin:miter;stroke-opacity:1"
       d="m 94.285714,330.35712 362.499996,0.35715 -0.35714,-5.71429 H 93.928572 Z"
       id="path1557"
       inkscape:connector-curvature="0" />
    <path
       style="fill:none;stroke:#000000;stroke-width:1px;stroke-linecap:butt;stroke-linejoin:miter;stroke-opacity:1"
       d="m 118.92857,530.71427 388.92857,-1.07143 -3.57143,6.07143 -379.64285,-1.07143 z"
       id="path1559"
       inkscape:connector-curvature="0" />
    <path
       style="fill:none;stroke:#000000;stroke-width:1px;stroke-linecap:butt;stroke-linejoin:miter;stroke-opacity:1"
       d="m 164.28572,574.2857 281.42857,0.71428 -3.92857,4.64286 -275.71429,-0.71429 z"
       id="path1561"
       inkscape:connector-curvature="0" />
    <path
       style="fill:none;stroke:#000000;stroke-width:1px;stroke-linecap:butt;stroke-linejoin:miter;stroke-opacity:1"
       d="m 83.337585,283.81968 266.175195,1.01015 -1.51523,-6.06091 -270.215804,1.01015 z"
       id="path1563"
       inkscape:connector-curvature="0" />
    <path
       style="fill:none;stroke:#000000;stroke-width:1px;stroke-linecap:butt;stroke-linejoin:miter;stroke-opacity:1"
       d="M 72.678572,239.28569 H 218.03571 l -1.42857,-5.71428 -147.678568,1.07143 z"
       id="path1565"
       inkscape:connector-curvature="0" />
    <path
       style="fill:none;stroke:#000000;stroke-width:1px;stroke-linecap:butt;stroke-linejoin:miter;stroke-opacity:1"
       d="M 179.64286,619.64284 180,625.35712 300.53571,624.46427 303.75,619.82141 Z"
       id="path1567"
       inkscape:connector-curvature="0" />
    <path
       style="fill:none;stroke:#000000;stroke-width:1px;stroke-linecap:butt;stroke-linejoin:miter;stroke-opacity:1"
       d="m 307.14286,479.28569 0.71428,-53.21428 6.78572,0.35714 -0.35715,53.21429 z"
       id="path1569"
       inkscape:connector-curvature="0" />
    <path
       style="fill:none;stroke:#000000;stroke-width:1px;stroke-linecap:butt;stroke-linejoin:miter;stroke-opacity:1"
       d="m 307.14286,370.35712 h 6.78571 l -1.78571,-40.71428 -5.35715,-0.35715 z"
       id="path1571"
       inkscape:connector-curvature="0" />
    <path
       style="fill:none;stroke:#000000;stroke-width:1px;stroke-linecap:butt;stroke-linejoin:miter;stroke-opacity:1"
       d="m 306.07143,534.64284 8.21428,-0.35715 -1.42857,40 -7.5,-0.35714 z"
       id="path1573"
       inkscape:connector-curvature="0" />
    <path
       style="fill:none;stroke:#000000;stroke-width:1px;stroke-linecap:butt;stroke-linejoin:miter;stroke-opacity:1"
       d="m 485.35714,481.78569 -2.14285,46.78572 h 5.35714 l 2.5,-48.57143 z"
       id="path1575"
       inkscape:connector-curvature="0" />
    <path
       style="fill:none;stroke:#000000;stroke-width:1px;stroke-linecap:butt;stroke-linejoin:miter;stroke-opacity:1"
       d="m 488.57143,418.92855 7.14286,1.42857 -3.21429,-46.78571 -5.35714,0.35714 z"
       id="path1577"
       inkscape:connector-curvature="0" />
    <path
       style="fill:none;stroke:#000000;stroke-width:1px;stroke-linecap:butt;stroke-linejoin:miter;stroke-opacity:1"
       d="m 111.07143,324.28569 v -40 l -7.14286,-1.07142 2.14286,41.07142 z"
       id="path1579"
       inkscape:connector-curvature="0" />
    <path
       style="fill:none;stroke:#000000;stroke-width:1px;stroke-linecap:butt;stroke-linejoin:miter;stroke-opacity:1"
       d="M 288.92857,278.92855 290,266.07141 l 4.28571,1.42857 -0.71428,11.07143 z"
       id="path1581"
       inkscape:connector-curvature="0" />
  </g>
  <g
     inkscape:groupmode="layer"
     id="layer2"
     inkscape:label="Layout 1"
     style="display:none">
    <path
       style="fill:none;stroke:#000000;stroke-width:1px;stroke-linecap:butt;stroke-linejoin:miter;stroke-opacity:1"
       d="M 68.690373,59.776541 194.95945,488.08122 469.21586,385.04566 584.37325,210.79435 95.964492,21.895821 Z"
       id="path1547"
       inkscape:connector-curvature="0"
       sodipodi:nodetypes="cccccc" />
  </g>
  <g
     inkscape:groupmode="layer"
     id="layer3"
     inkscape:label="Layout 2">
    <path
       style="fill:#715313;fill-opacity:1;stroke:none;stroke-width:1px;stroke-linecap:butt;stroke-linejoin:miter;stroke-opacity:1"
       d="m 255.47483,128.11674 37.67857,-1.875 93.83928,2.58929 -0.80357,8.92857 -11.78571,0.71428 12.32143,2.41072 0.35714,13.21428 -1.78571,3.125 -75.80358,-0.625 -48.74999,0.53572 -1.60715,-8.03572 c 0,0 -4.375,-2.67857 -4.375,-3.03571 0,-0.35714 -0.0893,-10.08929 -0.0893,-10.08929 l 5.71428,-0.35714 -5.17857,-2.23214 z"
       id="path981"
       inkscape:connector-curvature="0"
       sodipodi:nodetypes="cccccccccccccccc" />
    <path
       style="fill:#000000;fill-opacity:1;stroke:none;stroke-width:1px;stroke-linecap:butt;stroke-linejoin:miter;stroke-opacity:1"
       d="m 330.35069,130.1582 0.82075,21.55542 4.10544,3.15263 14.48489,0.21017 0.11002,-6.39284 -4.05407,-4.74221 -1.01387,-0.33096 -0.35715,-1.31329 -3.77445,-3.84842 -2.55695,-0.2841 6.31314,0.16588 4.5703,-0.10461 -0.16325,-3.66273 -3.32354,-4.70522 z"
       id="path977"
       inkscape:connector-curvature="0"
       sodipodi:nodetypes="ccccccccccccccc" />
    <path
       style="fill:#000000;fill-opacity:1;stroke:none;stroke-width:1px;stroke-linecap:butt;stroke-linejoin:miter;stroke-opacity:1"
       d="m 267.68873,128.94688 0.59978,25.41166 10.73287,-0.56821 -0.94702,-7.89182 5.3033,8.20749 7.16577,-1.8309 -1.1207,-3.93161 -5.09805,-7.68515 3.41565,-2.60395 -1.14281,-2.88875 -7.07106,-6.88166 z"
       id="path969"
       inkscape:connector-curvature="0"
       sodipodi:nodetypes="cccccccccccc" />
    <path
       style="fill:#fbf700;fill-opacity:1;stroke:none;stroke-width:1px;stroke-linecap:butt;stroke-linejoin:miter;stroke-opacity:1"
       d="m 268.47791,129.7992 0.63135,21.71828 6.43972,-0.50507 0.50508,-9.59645 6.31345,9.34391 5.80838,-2.14657 -6.69226,-9.59645 3.78807,-3.91434 -5.55584,-5.55584 z"
       id="path959"
       inkscape:connector-curvature="0" />
    <path
       style="fill:#000000;fill-opacity:1;stroke:none;stroke-width:1px;stroke-linecap:butt;stroke-linejoin:miter;stroke-opacity:1"
       d="m 289.78582,129.54667 0.94702,21.52887 3.74381,3.63379 14.97465,-0.24454 -0.31475,-7.30363 -1.8309,-3.4724 -4.67196,0.25254 -0.1894,-3.6618 -2.20971,-2.84106 7.63928,-0.0631 -0.31567,-4.41942 -1.95717,-2.80948 z"
       id="path971"
       inkscape:connector-curvature="0"
       sodipodi:nodetypes="ccccccccccccc" />
    <path
       style="fill:#fbf700;fill-opacity:1;stroke:none;stroke-width:1px;stroke-linecap:butt;stroke-linejoin:miter;stroke-opacity:1"
       d="m 290.95381,130.55682 0.88388,19.95051 14.64721,-0.50507 0.25254,-5.55584 -9.47018,0.88388 v -3.283 l 3.15673,0.12627 -0.25254,-3.91434 -2.77792,0.25254 -0.75761,-3.53553 8.9651,0.25253 -0.37881,-4.29314 z"
       id="path961"
       inkscape:connector-curvature="0" />
    <path
       style="fill:#000000;fill-opacity:1;stroke:none;stroke-width:1px;stroke-linecap:butt;stroke-linejoin:miter;stroke-opacity:1"
       d="m 308.37661,135.92924 2.85715,8.48215 -1.47322,-0.26786 -0.13393,6.91964 5.49108,3.92857 11.33928,0.3125 3.61607,-6.96429 -3.08036,-8.83928 0.75893,-4.64285 -2.54464,-4.15179 -11.11607,-0.49108 z"
       id="path975"
       inkscape:connector-curvature="0"
       sodipodi:nodetypes="cccccccccccc" />
    <path
       style="fill:#fbf700;fill-opacity:1;stroke:none;stroke-width:1px;stroke-linecap:butt;stroke-linejoin:miter;stroke-opacity:1"
       d="m 310.77805,145.20403 8.5863,0.75762 0.25254,-3.78808 -8.33376,-0.3788 -1.6415,-5.80838 4.92449,-4.54569 h 9.97526 l -0.63135,5.05076 -7.57614,-0.75761 -0.12627,2.77792 7.70241,0.75761 2.27285,6.56599 -3.78807,5.42958 -11.61676,-0.88389 z"
       id="path963"
       inkscape:connector-curvature="0"
       sodipodi:nodetypes="ccccccccccccccc" />
    <path
       style="fill:#fbf700;fill-opacity:1;stroke:none;stroke-width:1px;stroke-linecap:butt;stroke-linejoin:miter;stroke-opacity:1"
       d="m 331.48618,131.18816 0.88388,19.57171 13.51079,0.12627 v -6.18719 l -8.20749,0.37881 v -2.90419 l 2.90419,0.25254 v -3.283 l -3.15673,-0.63134 v -3.53553 l 7.95496,0.12627 -0.37881,-4.29315 z"
       id="path965"
       inkscape:connector-curvature="0" />
    <path
       style="fill:#000000;fill-opacity:1;stroke:none;stroke-width:1px;stroke-linecap:butt;stroke-linejoin:miter;stroke-opacity:1"
       d="m 350.71064,130.11488 -0.56821,5.77681 1.19956,2.0203 3.7565,0.0632 0.15784,13.25825 3.41282,3.45971 7.50125,0.29404 -0.85231,-15.00529 4.90561,0.28953 0.0884,-5.58741 -3.0286,-4.85315 z"
       id="path979"
       inkscape:connector-curvature="0"
       sodipodi:nodetypes="cccccccccccc" />
    <path
       style="fill:#fbf700;fill-opacity:1;stroke:none;stroke-width:1px;stroke-linecap:butt;stroke-linejoin:miter;stroke-opacity:1"
       d="m 351.43669,130.80936 15.5311,-0.12627 0.63134,5.55584 -6.56599,-0.50508 0.50508,15.27856 h -5.17704 l -0.3788,-15.40483 -5.05077,0.12627 z"
       id="path967"
       inkscape:connector-curvature="0" />
    <path
       style="fill:#000000;fill-opacity:1;stroke:none;stroke-width:1px;stroke-linecap:butt;stroke-linejoin:miter;stroke-opacity:1"
       d="m 274.28629,134.15549 0.25254,3.40926 4.23001,-0.37881 0.18941,-3.28299 z"
       id="path973"
       inkscape:connector-curvature="0" />
    <g
       inkscape:label="Layout"
       id="layer1-5-3"
       transform="translate(249,-289.99998)"
       style="stroke:none;fill:#715313;fill-opacity:1" />
    <path
       style="fill:#715313;fill-opacity:1;stroke:none;stroke-width:1px;stroke-linecap:butt;stroke-linejoin:miter;stroke-opacity:1"
       d="m 118.06158,359.53931 -4.29315,-5.55584 0.12627,-4.16688 29.67323,-4.41942 42.80521,-1.14911 49.74848,1.04823 6.03182,3.50861 -18.22317,6.03623 -63.46538,4.98135 z"
       id="path1678"
       inkscape:connector-curvature="0"
       sodipodi:nodetypes="cccccccccc" />
    <path
       style="fill:#715313;fill-opacity:1;stroke:none;stroke-width:1px;stroke-linecap:butt;stroke-linejoin:miter;stroke-opacity:1"
       d="m 166.78571,333.39286 11.69008,-1.34192 10.02167,-4.81028 0.43111,-111.3478 -11.78571,-1.96429 -10.35715,2.14286 z"
       id="path1680"
       inkscape:connector-curvature="0"
       sodipodi:nodetypes="ccccccc" />
    <path
       style="fill:#715313;fill-opacity:1;stroke:none;stroke-width:1px;stroke-linecap:butt;stroke-linejoin:miter;stroke-opacity:1"
       d="m 309.46429,215.89286 10.71428,-2.67857 10,2.85714 0.53572,107.67857 -8.92858,6.07143 -12.67857,2.32143 z"
       id="path1682"
       inkscape:connector-curvature="0"
       sodipodi:nodetypes="ccccccc" />
    <path
       style="fill:#715313;stroke:none;stroke-width:1px;stroke-linecap:butt;stroke-linejoin:miter;stroke-opacity:1;fill-opacity:1"
       d="m 255,351.96429 24.28571,-6.60715 56.60715,-1.96428 49.28571,5 -7.14286,6.42857 L 320,361.25 262.14286,359.82143 Z"
       id="path1684"
       inkscape:connector-curvature="0" />
    <path
       style="fill:#715313;fill-opacity:1;stroke:none;stroke-width:1px;stroke-linecap:butt;stroke-linejoin:miter;stroke-opacity:1"
       d="m 451.16071,330.08929 13.30358,-2.41072 7.94642,-7.14285 -0.26785,-104.28572 -10.17857,-2.67857 -10.68366,2.26913 z"
       id="path1686"
       inkscape:connector-curvature="0"
       sodipodi:nodetypes="ccccccc" />
    <path
       style="fill:#715313;fill-opacity:1;stroke:none;stroke-width:1px;stroke-linecap:butt;stroke-linejoin:miter;stroke-opacity:1"
       d="m 398.75,352.85714 15.17857,-6.60714 72.5,-2.85714 42.14286,5.71428 -10.00001,6.60714 -53.39285,4.64286 -56.96429,-0.89285 z"
       id="path1688"
       inkscape:connector-curvature="0"
       sodipodi:nodetypes="cccccccc" />
    <path
       style="fill:#fbff00;stroke:none;stroke-width:1px;stroke-linecap:butt;stroke-linejoin:miter;stroke-opacity:1;fill-opacity:1"
       d="m 110.2329,337.56849 23.61231,-1.6415 75.25637,0.25254 36.61803,1.51523 0.25253,2.14657 -38.13325,1.13643 -70.58441,0.25253 -27.14785,-1.26269 z"
       id="path1690"
       inkscape:connector-curvature="0" />
    <path
       style="fill:#fbff00;stroke:none;stroke-width:1px;stroke-linecap:butt;stroke-linejoin:miter;stroke-opacity:1;fill-opacity:1"
       d="m 387.77231,338.19984 -39.64849,-2.27285 -60.10408,0.75762 -35.98668,1.26269 0.37881,1.89403 20.58186,1.2627 88.76715,0.12626 26.01143,-1.64149 z"
       id="path1692"
       inkscape:connector-curvature="0" />
    <path
       style="fill:#fbff00;stroke:none;stroke-width:1px;stroke-linecap:butt;stroke-linejoin:miter;stroke-opacity:1;fill-opacity:1"
       d="m 529.57247,337.44222 -27.77919,-1.26269 h -73.74114 l -34.09265,1.26269 1.01016,3.15673 57.83123,0.50508 61.6193,-0.75762 15.15229,-1.01015 z"
       id="path1694"
       inkscape:connector-curvature="0" />
  </g>
</svg>
