<?xml version="1.0" encoding="UTF-8" standalone="no"?>
<!-- Created with Inkscape (http://www.inkscape.org/) -->

<svg
   xmlns:dc="http://purl.org/dc/elements/1.1/"
   xmlns:cc="http://creativecommons.org/ns#"
   xmlns:rdf="http://www.w3.org/1999/02/22-rdf-syntax-ns#"
   xmlns:svg="http://www.w3.org/2000/svg"
   xmlns="http://www.w3.org/2000/svg"
   xmlns:sodipodi="http://sodipodi.sourceforge.net/DTD/sodipodi-0.dtd"
   xmlns:inkscape="http://www.inkscape.org/namespaces/inkscape"
   width="110"
   height="140"
   viewBox="0 0 110 140"
   version="1.1"
   id="svg8"
   inkscape:version="0.92.3 (2405546, 2018-03-11)"
   sodipodi:docname="landing-small-0.svg">
  <defs
     id="defs2" />
  <sodipodi:namedview
     id="base"
     pagecolor="#ffffff"
     bordercolor="#666666"
     borderopacity="1.0"
     inkscape:pageopacity="0.0"
     inkscape:pageshadow="2"
     inkscape:zoom="5.6"
     inkscape:cx="-1.0124419"
     inkscape:cy="76.719352"
     inkscape:document-units="px"
     inkscape:current-layer="layer2"
     showgrid="true"
     units="px"
     inkscape:window-width="2493"
     inkscape:window-height="1374"
     inkscape:window-x="67"
     inkscape:window-y="27"
     inkscape:window-maximized="1"
     inkscape:snap-global="false"
     showguides="false">
    <inkscape:grid
       type="xygrid"
       id="grid4537"
       empspacing="1"
       spacingx="1"
       spacingy="1" />
  </sodipodi:namedview>
  <metadata
     id="metadata5">
    <rdf:RDF>
      <cc:Work
         rdf:about="">
        <dc:format>image/svg+xml</dc:format>
        <dc:type
           rdf:resource="http://purl.org/dc/dcmitype/StillImage" />
        <dc:title></dc:title>
      </cc:Work>
    </rdf:RDF>
  </metadata>
  <g
     inkscape:groupmode="layer"
     id="layer2"
     inkscape:label="Layout 1"
     transform="translate(0,-100)">
    <path
       style="fill:#000000;fill-opacity:1;stroke:none;stroke-width:0.73400003;stroke-opacity:1"
       d="m 21.58903,207.32143 -6.926863,-33.03571 21.550239,27.14285 -1.34689,-10.89285 13.853726,13.57143 9.813054,1.78571 L 71.039132,186.25 71.90499,200 l 16.836123,-28.92857 -1.73172,31.25 13.372697,-10 L 90.376623,218.92857 105,223.21429 80.467363,239.10715 32.556562,237.67857 6.1960008,231.60715 18.60663,222.5 4.4642868,200 Z"
       id="path821"
       inkscape:connector-curvature="0" />
    <path
       style="fill:#545454;fill-opacity:1;stroke:none;stroke-width:0.73400003;stroke-opacity:1"
       d="m 32.556562,236.25 -24.3402262,-5.53571 12.6992492,-7.5 -13.4689002,-20.53572 15.6816472,7.14286 -6.542037,-31.25 21.357827,27.32143 -1.635509,-11.96429 12.122009,12.5 10.871327,1.42858 v 0 l 11.256151,-18.39286 0.288618,15.17857 17.124745,-29.46429 -2.11654,30.89286 12.50683,-10.89286 -9.62064,25.35715 13.565117,3.57143 -22.031284,13.03571 z"
       id="path817"
       inkscape:connector-curvature="0"
       sodipodi:nodetypes="cccccccccccccccccccc" />
    <path
       style="fill:#222222;fill-opacity:1;stroke:none;stroke-width:0.73400003;stroke-opacity:1"
       d="m 14.469754,230 18.086808,5.35715 47.141151,0.53571 15.48924,-10.35714 -7.79273,-5.35715 4.71412,-15.35714 -6.73445,3.39286 -1.731722,-16.42857 -12.891659,15 -2.597572,-7.14286 -8.273754,10.17857 -11.640977,-1.25 -7.407894,-6.07143 -2.597574,4.82143 -13.853725,-13.39286 -0.384826,17.5 -6.73445,0.35715 4.810321,11.96428 z"
       id="path819"
       inkscape:connector-curvature="0" />
  </g>
</svg>
