<?xml version="1.0" encoding="UTF-8" standalone="no"?>
<!-- Created with Inkscape (http://www.inkscape.org/) -->

<svg
   xmlns:dc="http://purl.org/dc/elements/1.1/"
   xmlns:cc="http://creativecommons.org/ns#"
   xmlns:rdf="http://www.w3.org/1999/02/22-rdf-syntax-ns#"
   xmlns:svg="http://www.w3.org/2000/svg"
   xmlns="http://www.w3.org/2000/svg"
   xmlns:sodipodi="http://sodipodi.sourceforge.net/DTD/sodipodi-0.dtd"
   xmlns:inkscape="http://www.inkscape.org/namespaces/inkscape"
   width="190"
   height="140"
   viewBox="0 0 190 140"
   version="1.1"
   id="svg8"
   inkscape:version="0.92.3 (2405546, 2018-03-11)"
   sodipodi:docname="landing-big-0.svg">
  <defs
     id="defs2" />
  <sodipodi:namedview
     id="base"
     pagecolor="#ffffff"
     bordercolor="#666666"
     borderopacity="1.0"
     inkscape:pageopacity="0.0"
     inkscape:pageshadow="2"
     inkscape:zoom="5.6"
     inkscape:cx="29.344701"
     inkscape:cy="76.719352"
     inkscape:document-units="px"
     inkscape:current-layer="layer2"
     showgrid="true"
     units="px"
     inkscape:window-width="2493"
     inkscape:window-height="1374"
     inkscape:window-x="67"
     inkscape:window-y="27"
     inkscape:window-maximized="1"
     inkscape:snap-global="false"
     showguides="false">
    <inkscape:grid
       type="xygrid"
       id="grid4537"
       empspacing="1"
       spacingx="1"
       spacingy="1" />
  </sodipodi:namedview>
  <metadata
     id="metadata5">
    <rdf:RDF>
      <cc:Work
         rdf:about="">
        <dc:format>image/svg+xml</dc:format>
        <dc:type
           rdf:resource="http://purl.org/dc/dcmitype/StillImage" />
        <dc:title></dc:title>
      </cc:Work>
    </rdf:RDF>
  </metadata>
  <g
     inkscape:groupmode="layer"
     id="layer2"
     inkscape:label="Layout 1"
     transform="translate(0,-100)">
    <path
       style="fill:#000000;fill-opacity:1;stroke:none;stroke-opacity:1"
       d="m 33.214286,207.32143 -12.857143,-33.03571 40,27.14285 -2.5,-10.89285 25.714286,13.57143 18.214281,1.78571 L 125,186.25 l 1.60714,13.75 31.25,-28.92857 -3.21429,31.25 24.82143,-10 -18.57143,26.60714 27.14286,4.28572 L 142.5,239.10715 53.571429,237.67857 4.6428569,231.60715 27.678571,222.5 1.4285719,200 Z"
       id="path821"
       inkscape:connector-curvature="0" />
    <path
       style="fill:#545454;fill-opacity:1;stroke:none;stroke-opacity:1"
       d="m 53.571429,236.25 -45.1785721,-5.53571 23.5714291,-7.5 -25.0000001,-20.53572 29.1071431,7.14286 -12.142858,-31.25 39.642858,27.32143 -3.035715,-11.96429 22.5,12.5 20.178576,1.42858 v 0 l 20.89285,-18.39286 0.53572,15.17857 31.78571,-29.46429 -3.92857,30.89286 23.21428,-10.89286 -17.85714,25.35715 25.17857,3.57143 -40.89286,13.03571 z"
       id="path817"
       inkscape:connector-curvature="0"
       sodipodi:nodetypes="cccccccccccccccccccc" />
    <path
       style="fill:#222222;fill-opacity:1;stroke:none;stroke-opacity:1"
       d="m 20,230 33.571429,5.35715 87.500001,0.53571 28.75,-10.35714 -14.46429,-5.35715 8.75,-15.35714 -12.5,3.39286 -3.21429,-16.42857 -23.92856,15 -4.82143,-7.14286 -15.35715,10.17857 -21.607138,-1.25 -13.75,-6.07143 -4.821429,4.82143 -25.714286,-13.39286 -0.714285,17.5 -12.500001,0.35715 8.928572,11.96428 z"
       id="path819"
       inkscape:connector-curvature="0" />
  </g>
</svg>
