<?xml version="1.0" encoding="UTF-8" standalone="no"?>
<!-- Created with Inkscape (http://www.inkscape.org/) -->

<svg
   xmlns:dc="http://purl.org/dc/elements/1.1/"
   xmlns:cc="http://creativecommons.org/ns#"
   xmlns:rdf="http://www.w3.org/1999/02/22-rdf-syntax-ns#"
   xmlns:svg="http://www.w3.org/2000/svg"
   xmlns="http://www.w3.org/2000/svg"
   xmlns:sodipodi="http://sodipodi.sourceforge.net/DTD/sodipodi-0.dtd"
   xmlns:inkscape="http://www.inkscape.org/namespaces/inkscape"
   width="240"
   height="140"
   viewBox="0 0 240 140"
   version="1.1"
   id="svg8"
   inkscape:version="0.92.3 (2405546, 2018-03-11)"
   sodipodi:docname="landing-big-1.svg">
  <defs
     id="defs2" />
  <sodipodi:namedview
     id="base"
     pagecolor="#ffffff"
     bordercolor="#666666"
     borderopacity="1.0"
     inkscape:pageopacity="0.0"
     inkscape:pageshadow="2"
     inkscape:zoom="5.6"
     inkscape:cx="127.02327"
     inkscape:cy="61.897924"
     inkscape:document-units="px"
     inkscape:current-layer="layer1"
     showgrid="true"
     units="px"
     inkscape:window-width="2493"
     inkscape:window-height="1374"
     inkscape:window-x="67"
     inkscape:window-y="27"
     inkscape:window-maximized="1"
     inkscape:snap-global="false"
     showguides="false">
    <inkscape:grid
       type="xygrid"
       id="grid4537"
       empspacing="1"
       spacingx="1"
       spacingy="1" />
  </sodipodi:namedview>
  <metadata
     id="metadata5">
    <rdf:RDF>
      <cc:Work
         rdf:about="">
        <dc:format>image/svg+xml</dc:format>
        <dc:type
           rdf:resource="http://purl.org/dc/dcmitype/StillImage" />
        <dc:title></dc:title>
      </cc:Work>
    </rdf:RDF>
  </metadata>
  <g
     inkscape:groupmode="layer"
     id="layer2"
     inkscape:label="Layout 1"
     style="display:none"
     sodipodi:insensitive="true"
     transform="translate(0,-100)">
    <path
       style="fill:#000000;fill-opacity:1;stroke:none;stroke-opacity:1"
       d="M 7.8571429,191.42857 -5,158.39286 35,185.53571 32.5,174.64286 58.214286,188.21429 76.428571,190 l 23.214286,-19.64286 1.607143,13.75 31.25,-28.92857 -3.21429,31.25 24.82143,-10 -18.57143,26.60714 27.14286,4.28572 -45.53571,15.89286 -88.928574,-1.42858 -48.928572,-6.07142 23.0357146,-9.10715 -26.2499996,-22.5 z"
       id="path821"
       inkscape:connector-curvature="0" />
    <path
       style="fill:#545454;fill-opacity:1;stroke:none;stroke-opacity:1"
       d="m 28.214286,220.35714 -45.178572,-5.53571 23.5714289,-7.5 -24.9999999,-20.53572 29.107143,7.14286 -12.1428574,-31.25 L 38.214286,190 l -3.035715,-11.96429 22.5,12.5 20.178572,1.42858 v 0 L 98.75,173.57143 99.285714,188.75 131.07143,159.28571 127.14286,190.17857 150.35714,179.28571 132.5,204.64286 157.67857,208.21429 116.78571,221.25 Z"
       id="path817"
       inkscape:connector-curvature="0"
       sodipodi:nodetypes="cccccccccccccccccccc" />
    <path
       style="fill:#222222;fill-opacity:1;stroke:none;stroke-opacity:1"
       d="M -5.3571429,214.10714 28.214286,219.46429 115.71429,220 144.46429,209.64286 130,204.28571 l 8.75,-15.35714 -12.5,3.39286 -3.21429,-16.42857 -23.928567,15 -4.821429,-7.14286 -15.357143,10.17857 -21.607142,-1.25 -13.75,-6.07143 -4.821429,4.82143 -25.714286,-13.39286 -0.714285,17.5 -12.50000043,0.35715 L 8.75,207.85714 Z"
       id="path819"
       inkscape:connector-curvature="0" />
  </g>
  <g
     inkscape:groupmode="layer"
     id="layer1"
     inkscape:label="Layout 2"
     transform="translate(0,-100)">
    <path
       style="fill:#000000;fill-opacity:1;stroke:none;stroke-opacity:1"
       d="M 2.1428579,212.14286 53.214286,231.24999 36.071429,218.21428 60.892857,214.28571 Z"
       id="path864"
       inkscape:connector-curvature="0"
       sodipodi:nodetypes="ccccc" />
    <path
       style="fill:#080808;fill-opacity:1;stroke:none;stroke-opacity:1"
       d="M 84.642858,209.10715 35.178572,160 61.607143,214.64286 60.714286,193.92857 Z"
       id="path858"
       inkscape:connector-curvature="0"
       sodipodi:nodetypes="ccccc" />
    <path
       style="fill:#000000;fill-opacity:1;stroke:none;stroke-opacity:1"
       d="m 197.67857,153.92857 -11.07143,50.53571 -5.17857,-11.42857 -17.67857,7.32143 z"
       id="path852"
       inkscape:connector-curvature="0"
       sodipodi:nodetypes="ccccc" />
    <path
       style="fill:#000000;fill-opacity:1;stroke:none;stroke-opacity:1"
       d="m 182.14285,210.35714 54.64286,-28.92857 -43.57142,50.17857 4.10713,-17.85714 z"
       id="path824"
       inkscape:connector-curvature="0"
       sodipodi:nodetypes="ccccc" />
    <path
       style="fill:#545454;fill-opacity:1;stroke:none;stroke-opacity:1"
       d="m 186.42857,210 45.71428,-25.17857 -35.35714,39.82143 4.82143,-13.57143 z"
       id="path822"
       inkscape:connector-curvature="0" />
    <path
       style="fill:#222222;fill-opacity:1;stroke:none;stroke-opacity:1"
       d="m 195.53571,226.96428 19.82143,-28.39285 -30.53571,11.60714 14.64285,2.67857 z"
       id="path820"
       inkscape:connector-curvature="0"
       sodipodi:nodetypes="ccccc" />
    <path
       style="fill:#545454;fill-opacity:1;stroke:none;stroke-opacity:1"
       d="M 168.03571,197.5 187.85714,179.10714 185.53571,200 l 10,-41.60714 z"
       id="path848"
       inkscape:connector-curvature="0" />
    <path
       style="fill:#222222;fill-opacity:1;stroke:none;stroke-opacity:1"
       d="M 188.03571,177.32143 168.75,196.60714 182.67857,190 l 3.21428,8.03571 z"
       id="path850"
       inkscape:connector-curvature="0" />
    <path
       style="fill:#222222;fill-opacity:1;stroke:none;stroke-opacity:1"
       d="M 59.821429,207.14285 39.285714,165.89286 73.571429,200.35714 59.107143,191.78571 Z"
       id="path854"
       inkscape:connector-curvature="0"
       sodipodi:nodetypes="ccccc" />
    <path
       style="fill:#545454;fill-opacity:1;stroke:none;stroke-opacity:1"
       d="m 58.75,205.53571 -6.607143,-23.21428 21.25,17.5 L 38.571429,165 Z"
       id="path856"
       inkscape:connector-curvature="0"
       sodipodi:nodetypes="ccccc" />
    <path
       style="fill:#222222;fill-opacity:1;stroke:none;stroke-opacity:1"
       d="m 43.928572,226.07143 -34.4642861,-12.5 38.0357141,1.25 -15.892857,2.5 z"
       id="path860"
       inkscape:connector-curvature="0" />
    <path
       style="fill:#545454;fill-opacity:1;stroke:none;stroke-opacity:1"
       d="M 43.928572,226.25 24.107143,216.60714 47.321429,215 9.4642859,213.57143 Z"
       id="path862"
       inkscape:connector-curvature="0"
       sodipodi:nodetypes="ccccc" />
  </g>
</svg>
