<?xml version="1.0" encoding="UTF-8" standalone="no"?>
<!-- Created with Inkscape (http://www.inkscape.org/) -->

<svg
   xmlns:dc="http://purl.org/dc/elements/1.1/"
   xmlns:cc="http://creativecommons.org/ns#"
   xmlns:rdf="http://www.w3.org/1999/02/22-rdf-syntax-ns#"
   xmlns:svg="http://www.w3.org/2000/svg"
   xmlns="http://www.w3.org/2000/svg"
   xmlns:sodipodi="http://sodipodi.sourceforge.net/DTD/sodipodi-0.dtd"
   xmlns:inkscape="http://www.inkscape.org/namespaces/inkscape"
   width="100"
   height="140"
   viewBox="0 0 100 140"
   version="1.1"
   id="svg8"
   inkscape:version="0.92.3 (2405546, 2018-03-11)"
   sodipodi:docname="rising-small-0.svg">
  <defs
     id="defs2" />
  <sodipodi:namedview
     id="base"
     pagecolor="#ffffff"
     bordercolor="#666666"
     borderopacity="1.0"
     inkscape:pageopacity="0.0"
     inkscape:pageshadow="2"
     inkscape:zoom="4.7411043"
     inkscape:cx="31.821946"
     inkscape:cy="78.75"
     inkscape:document-units="px"
     inkscape:current-layer="layer4"
     showgrid="true"
     units="px"
     inkscape:window-width="1717"
     inkscape:window-height="1014"
     inkscape:window-x="67"
     inkscape:window-y="27"
     inkscape:window-maximized="0"
     inkscape:snap-global="false"
     showguides="false"
     inkscape:measure-start="-45.7143,151.786"
     inkscape:measure-end="131.786,2.85714">
    <inkscape:grid
       type="xygrid"
       id="grid4537"
       empspacing="1"
       spacingx="1"
       spacingy="1" />
  </sodipodi:namedview>
  <metadata
     id="metadata5">
    <rdf:RDF>
      <cc:Work
         rdf:about="">
        <dc:format>image/svg+xml</dc:format>
        <dc:type
           rdf:resource="http://purl.org/dc/dcmitype/StillImage" />
        <dc:title></dc:title>
      </cc:Work>
    </rdf:RDF>
  </metadata>
  <g
     inkscape:label="Layout"
     inkscape:groupmode="layer"
     id="layer1"
     transform="translate(0,-509.99998)"
     style="display:none">
    <path
       style="fill:#000000;fill-opacity:1;stroke:none;stroke-width:1px;stroke-linecap:butt;stroke-linejoin:miter;stroke-opacity:1"
       d="m 15.333562,622.05919 4.937184,2.71478 7.58249,1.25186 83.873904,-0.0593 8.75218,-1.69381 7.3281,-4.75938 -0.24168,-8.16787 -4.52588,-2.95649 -11.26487,-1.57837 -83.928066,0.0854 -10.101525,1.07328 -2.67966,1.63701 -1.400862,6.19912 z"
       id="path814"
       inkscape:connector-curvature="0"
       sodipodi:nodetypes="cccccccccccccc" />
    <path
       style="fill:#e20000;fill-opacity:1;stroke:none;stroke-width:1px;stroke-linecap:butt;stroke-linejoin:miter;stroke-opacity:1"
       d="m 16.105839,610.28683 -1.076548,5.51721 1.244288,5.73157 4.532225,2.33598 7.765548,0.82075 87.437958,-3.40412 8.83991,-6.12405 1.45476,-3.22435 -3.16941,-2.91951 -11.54356,-1.33665 -83.48323,0.004 -9.113037,1.16258 z"
       id="path816"
       inkscape:connector-curvature="0"
       sodipodi:nodetypes="ccccccccccccc" />
  </g>
  <g
     inkscape:groupmode="layer"
     id="layer2"
     inkscape:label="Layout 1"
     style="display:none"
     transform="translate(0,-100)">
    <path
       style="fill:none;stroke:#000000;stroke-width:1px;stroke-linecap:butt;stroke-linejoin:miter;stroke-opacity:1"
       d="m 16.414979,217.77664 c -8.3592743,2.01752 -18.310978,-12.21911 -14.7734811,-18.94036 1.9342356,-3.67504 5.954942,-5.88753 8.9651041,-8.58629 5.685746,-5.09757 10.957,-10.87378 14.520943,-17.67767 4.264604,-8.14152 4.730234,-17.50282 4.166879,-26.51651"
       id="path4539"
       inkscape:connector-curvature="0" />
    <path
       style="fill:none;stroke:#000000;stroke-width:1px;stroke-linecap:butt;stroke-linejoin:miter;stroke-opacity:1"
       d="m 129.42579,215.25126 c 9.67587,-2.17348 16.65426,-13.15749 11.74303,-22.60216 -1.44768,-2.784 -4.06721,-4.72846 -6.18719,-6.9448 -2.56992,-2.68674 -4.87186,-5.58129 -6.69226,-8.83883 -5.70896,-10.21605 -11.26959,-27.04502 -7.70241,-38.63834"
       id="path4541"
       inkscape:connector-curvature="0" />
    <path
       style="fill:none;stroke:#000000;stroke-width:1px;stroke-linecap:butt;stroke-linejoin:miter;stroke-opacity:1"
       d="m 50.633896,184.94669 c -0.385914,-16.2746 -1.995887,-32.76924 -2.904188,-49.11867"
       id="path4543"
       inkscape:connector-curvature="0" />
    <path
       style="fill:none;stroke:#000000;stroke-width:1px;stroke-linecap:butt;stroke-linejoin:miter;stroke-opacity:1"
       d="m 88.893424,182.29504 c 9.511505,-11.08516 12.939146,-26.58925 17.046326,-40.27984 1.80262,-6.00875 4.45222,-12.03334 5.68211,-18.18274"
       id="path4545"
       inkscape:connector-curvature="0" />
    <path
       style="fill:none;stroke:#000000;stroke-width:1px;stroke-linecap:butt;stroke-linejoin:miter;stroke-opacity:1"
       d="m 93.312841,161.2081 c -10.106867,-3.03123 -10.88568,-22.05284 -10.732871,-30.30457 0.08159,-4.40597 0.790638,-8.74169 1.010153,-13.13199"
       id="path4547"
       inkscape:connector-curvature="0" />
    <path
       style="fill:none;stroke:#000000;stroke-width:1px;stroke-linecap:butt;stroke-linejoin:miter;stroke-opacity:1"
       d="m 56.94735,160.07168 c 4.413037,-9.37529 3.20724,-20.10205 6.439722,-29.7995"
       id="path4549"
       inkscape:connector-curvature="0" />
  </g>
  <g
     inkscape:groupmode="layer"
     id="layer3"
     inkscape:label="Layout 2"
     style="display:none"
     transform="translate(0,-100)">
    <path
       style="fill:#0d0d0d;fill-opacity:1;stroke:none;stroke-width:0.76165563;stroke-opacity:1"
       d="m 26.817892,198.33121 7.618117,-7.44988 7.984372,-18.05647 2.56379,-17.67767 1.391771,-22.85471 7.544866,23.73859 0.879013,12.37437 1.611525,-15.5311 -0.219754,-29.16815 6.372848,26.64277 3.076547,-27.14785 2.637041,9.34391 3.735807,-37.249372 4.834574,23.738582 4.614821,-7.57614 -1.098766,31.56727 3.223049,15.9099 6.885604,-20.20305 5.347331,-22.22336 -0.879008,28.91562 v 6.81853 l 6.51935,-19.95052 0.95226,30.43085 3.73581,15.27856 10.47491,4.79822 -3.2963,17.29886 3.22305,17.1726 -9.8889,-1.01015 -11.573683,5.42957 -28.934192,1.38895 -24.75888,-4.16687 -8.570381,2.0203 0.439507,-9.84899 z"
       id="path4558"
       inkscape:connector-curvature="0"
       sodipodi:nodetypes="cccccccccccccccccccccccccccccccccc" />
    <path
       style="fill:#545454;fill-opacity:1;stroke:none;stroke-width:0.76165563;stroke-opacity:1"
       d="m 41.761121,216.89276 -7.618117,1.89404 0.439507,-8.08122 -6.079843,-11.61676 6.958856,-6.18718 8.350629,-18.81409 2.783542,-18.56156 0.732511,-17.5514 4.761323,19.06663 3.003296,22.09709 2.637041,-25.38008 v -21.59201 l 5.054327,26.01142 3.516055,-29.16815 2.344036,10.85914 3.662556,-37.88072 3.955561,21.97082 3.369551,-6.9448 -0.879013,26.64277 4.761323,20.20305 8.130876,-23.99112 3.369548,-16.92006 -1.465022,23.10724 0.43951,12.87945 6.226346,-20.07678 0.65926,25.25381 4.32181,15.78363 10.10866,5.05077 -3.36955,15.40482 2.71029,14.52095 -9.08314,-1.01016 -10.841165,5.80838 -28.055182,1.76777 z"
       id="path4552"
       inkscape:connector-curvature="0" />
    <path
       style="fill:#222222;fill-opacity:1;stroke:none;stroke-width:0.76165563;stroke-opacity:1"
       d="m 36.267287,208.559 -4.175314,-8.83883 6.226345,-3.03047 8.130875,-21.46573 2.856794,-14.52095 3.149798,19.06663 2.490538,16.66752 3.149799,-18.30901 1.831278,-19.1929 5.713587,17.80394 1.245269,-31.31473 3.149799,5.17703 3.076547,-25.50635 1.172018,14.64721 1.831278,-6.43972 -0.146502,20.07678 7.105359,23.86485 6.958858,-21.71828 3.735806,18.18275 4.102064,-14.26841 0.586008,19.69798 5.420579,4.41942 7.39837,3.6618 -2.05104,11.74302 1.39178,11.11168 -6.2996,-0.25254 -10.401658,5.55584 -26.66341,1.38896 -24.978633,-3.6618 -5.86009,2.0203 z"
       id="path4554"
       inkscape:connector-curvature="0"
       sodipodi:nodetypes="ccccccccccccccccccccccccccccccc" />
  </g>
  <g
     inkscape:groupmode="layer"
     id="layer4"
     inkscape:label="Layout 3"
     style="display:inline"
     transform="translate(0,-100)">
    <path
       style="fill:#000000;fill-opacity:1;stroke:none;stroke-opacity:1"
       d="m 1.6873709,202.24509 11.6006731,-0.84369 6.116718,-18.98292 -3.374741,-39.65321 18.139234,25.52148 2.531056,-13.07712 -4.007505,-24.46687 11.811594,20.03752 8.01501,-42.60611 7.171325,47.24638 4.007505,12.65528 3.585663,-10.33514 4.640269,-33.11465 7.593169,37.12215 1.68737,21.93582 17.29555,9.70238 -6.32764,20.88121 6.32764,16.45186 -16.45187,-2.32013 -16.240937,8.64777 -27.208851,2.32014 -17.928313,-9.06962 -13.9208071,3.37474 0.632764,-16.8737 z"
       id="path831"
       inkscape:connector-curvature="0" />
    <path
       style="fill:#545454;fill-opacity:1;stroke:none;stroke-opacity:1"
       d="m 9.7023809,216.16589 -5.062112,-11.81159 10.1242241,-0.84369 7.171325,-20.45936 -3.374741,-35.64571 13.077122,23.83411 2.531056,11.8116 5.062112,-26.78701 -3.374742,-19.40476 9.702381,21.93581 7.804089,-41.97334 3.585663,39.02044 7.171325,22.35766 6.538561,-19.40476 1.476449,-23.41226 4.007505,28.6853 1.898293,21.51397 16.03002,9.28054 -4.85119,18.56108 5.06211,14.76449 -12.65528,-4.00751 -17.084625,8.64778 -25.732402,1.47645 -18.561077,-8.01501 -10.3351451,3.58566 z"
       id="path827"
       inkscape:connector-curvature="0" />
    <path
       style="fill:#222222;fill-opacity:1;stroke:none;stroke-opacity:1"
       d="m 8.4368529,206.88536 8.6477741,-1.47645 8.436853,-22.56859 -2.320134,-20.67029 6.32764,9.49146 5.273033,14.7645 6.960403,-29.10715 4.218427,3.16382 6.960404,-24.04503 1.898292,21.51398 9.280538,24.04503 9.49146,-22.14674 3.374741,27.41977 12.866197,9.49146 -1.89829,15.8191 1.26553,10.75699 -8.01501,-1.47645 -16.662785,8.43685 -25.521481,1.47645 -17.717391,-8.01501 -7.804089,1.05461 -2.741977,-9.28054 z"
       id="path829"
       inkscape:connector-curvature="0" />
  </g>
</svg>
