<?xml version="1.0" encoding="UTF-8" standalone="no"?>
<!-- Created with Inkscape (http://www.inkscape.org/) -->

<svg
   xmlns:dc="http://purl.org/dc/elements/1.1/"
   xmlns:cc="http://creativecommons.org/ns#"
   xmlns:rdf="http://www.w3.org/1999/02/22-rdf-syntax-ns#"
   xmlns:svg="http://www.w3.org/2000/svg"
   xmlns="http://www.w3.org/2000/svg"
   xmlns:sodipodi="http://sodipodi.sourceforge.net/DTD/sodipodi-0.dtd"
   xmlns:inkscape="http://www.inkscape.org/namespaces/inkscape"
   width="70"
   height="140"
   viewBox="0 0 70 140"
   version="1.1"
   id="svg8"
   inkscape:version="0.92.3 (2405546, 2018-03-11)"
   sodipodi:docname="rising-small-1.svg">
  <defs
     id="defs2" />
  <sodipodi:namedview
     id="base"
     pagecolor="#ffffff"
     bordercolor="#666666"
     borderopacity="1.0"
     inkscape:pageopacity="0.0"
     inkscape:pageshadow="2"
     inkscape:zoom="3.1956265"
     inkscape:cx="59.98144"
     inkscape:cy="117.65104"
     inkscape:document-units="px"
     inkscape:current-layer="layer5"
     showgrid="true"
     units="px"
     inkscape:window-width="1717"
     inkscape:window-height="1014"
     inkscape:window-x="67"
     inkscape:window-y="27"
     inkscape:window-maximized="0"
     inkscape:snap-global="false"
     showguides="false">
    <inkscape:grid
       type="xygrid"
       id="grid4537"
       empspacing="1"
       spacingx="1"
       spacingy="1" />
  </sodipodi:namedview>
  <metadata
     id="metadata5">
    <rdf:RDF>
      <cc:Work
         rdf:about="">
        <dc:format>image/svg+xml</dc:format>
        <dc:type
           rdf:resource="http://purl.org/dc/dcmitype/StillImage" />
        <dc:title></dc:title>
      </cc:Work>
    </rdf:RDF>
  </metadata>
  <g
     inkscape:label="Layout"
     inkscape:groupmode="layer"
     id="layer1"
     transform="translate(0,-509.99998)"
     style="display:none">
    <path
       style="fill:#000000;fill-opacity:1;stroke:none;stroke-width:1px;stroke-linecap:butt;stroke-linejoin:miter;stroke-opacity:1"
       d="m 15.333562,622.05919 4.937184,2.71478 7.58249,1.25186 83.873904,-0.0593 8.75218,-1.69381 7.3281,-4.75938 -0.24168,-8.16787 -4.52588,-2.95649 -11.26487,-1.57837 -83.928066,0.0854 -10.101525,1.07328 -2.67966,1.63701 -1.400862,6.19912 z"
       id="path814"
       inkscape:connector-curvature="0"
       sodipodi:nodetypes="cccccccccccccc" />
    <path
       style="fill:#e20000;fill-opacity:1;stroke:none;stroke-width:1px;stroke-linecap:butt;stroke-linejoin:miter;stroke-opacity:1"
       d="m 16.105839,610.28683 -1.076548,5.51721 1.244288,5.73157 4.532225,2.33598 7.765548,0.82075 87.437958,-3.40412 8.83991,-6.12405 1.45476,-3.22435 -3.16941,-2.91951 -11.54356,-1.33665 -83.48323,0.004 -9.113037,1.16258 z"
       id="path816"
       inkscape:connector-curvature="0"
       sodipodi:nodetypes="ccccccccccccc" />
  </g>
  <g
     inkscape:groupmode="layer"
     id="layer2"
     inkscape:label="Layout 1"
     style="display:none"
     transform="translate(0,-100)">
    <path
       style="fill:none;stroke:#000000;stroke-width:1px;stroke-linecap:butt;stroke-linejoin:miter;stroke-opacity:1"
       d="m 16.414979,217.77664 c -8.3592743,2.01752 -18.310978,-12.21911 -14.7734811,-18.94036 1.9342356,-3.67504 5.954942,-5.88753 8.9651041,-8.58629 5.685746,-5.09757 10.957,-10.87378 14.520943,-17.67767 4.264604,-8.14152 4.730234,-17.50282 4.166879,-26.51651"
       id="path4539"
       inkscape:connector-curvature="0" />
    <path
       style="fill:none;stroke:#000000;stroke-width:1px;stroke-linecap:butt;stroke-linejoin:miter;stroke-opacity:1"
       d="m 129.42579,215.25126 c 9.67587,-2.17348 16.65426,-13.15749 11.74303,-22.60216 -1.44768,-2.784 -4.06721,-4.72846 -6.18719,-6.9448 -2.56992,-2.68674 -4.87186,-5.58129 -6.69226,-8.83883 -5.70896,-10.21605 -11.26959,-27.04502 -7.70241,-38.63834"
       id="path4541"
       inkscape:connector-curvature="0" />
    <path
       style="fill:none;stroke:#000000;stroke-width:1px;stroke-linecap:butt;stroke-linejoin:miter;stroke-opacity:1"
       d="m 50.633896,184.94669 c -0.385914,-16.2746 -1.995887,-32.76924 -2.904188,-49.11867"
       id="path4543"
       inkscape:connector-curvature="0" />
    <path
       style="fill:none;stroke:#000000;stroke-width:1px;stroke-linecap:butt;stroke-linejoin:miter;stroke-opacity:1"
       d="m 88.893424,182.29504 c 9.511505,-11.08516 12.939146,-26.58925 17.046326,-40.27984 1.80262,-6.00875 4.45222,-12.03334 5.68211,-18.18274"
       id="path4545"
       inkscape:connector-curvature="0" />
    <path
       style="fill:none;stroke:#000000;stroke-width:1px;stroke-linecap:butt;stroke-linejoin:miter;stroke-opacity:1"
       d="m 93.312841,161.2081 c -10.106867,-3.03123 -10.88568,-22.05284 -10.732871,-30.30457 0.08159,-4.40597 0.790638,-8.74169 1.010153,-13.13199"
       id="path4547"
       inkscape:connector-curvature="0" />
    <path
       style="fill:none;stroke:#000000;stroke-width:1px;stroke-linecap:butt;stroke-linejoin:miter;stroke-opacity:1"
       d="m 56.94735,160.07168 c 4.413037,-9.37529 3.20724,-20.10205 6.439722,-29.7995"
       id="path4549"
       inkscape:connector-curvature="0" />
  </g>
  <g
     inkscape:groupmode="layer"
     id="layer3"
     inkscape:label="Layout 2"
     style="display:none"
     transform="translate(0,-100)">
    <path
       style="fill:#0d0d0d;fill-opacity:1;stroke:none;stroke-opacity:1"
       d="m -5.6821081,198.33121 13.1319831,-7.44988 13.763328,-18.05647 4.419418,-17.67767 2.399112,-22.85471 13.005714,23.73859 1.515229,12.37437 2.777919,-15.5311 -0.378807,-29.16815 10.985409,26.64277 5.303301,-27.14785 4.545686,9.34391 6.439723,-37.249372 8.333758,23.738582 7.954952,-7.57614 -1.894036,31.56727 5.555839,15.9099 11.86929,-20.20305 9.21764,-22.22336 -1.51522,28.91562 v 6.81853 l 11.23794,-19.95052 1.6415,30.43085 6.43972,15.27856 18.05648,4.79822 -5.68211,17.29886 5.55584,17.1726 -17.04632,-1.01015 -19.95052,5.42957 -49.876279,1.38895 -42.678945,-4.16687 -14.7734805,2.0203 0.7576144,-9.84899 z"
       id="path4558"
       inkscape:connector-curvature="0"
       sodipodi:nodetypes="cccccccccccccccccccccccccccccccccc" />
    <path
       style="fill:#545454;fill-opacity:1;stroke:none;stroke-opacity:1"
       d="m 20.076782,216.89276 -13.1319833,1.89404 0.7576145,-8.08122 -10.4803327,-11.61676 11.9955615,-6.18718 14.394674,-18.81409 4.798224,-18.56156 1.262691,-17.5514 8.207489,19.06663 5.177032,22.09709 4.545687,-25.38008 v -21.59201 l 8.712565,26.01142 6.060916,-29.16815 4.04061,10.85914 6.313453,-37.88072 6.81853,21.97082 5.808377,-6.9448 -1.515229,26.64277 8.20749,20.20305 14.015869,-23.99112 5.80837,-16.92006 -2.52538,23.10724 0.75762,12.87945 10.73287,-20.07678 1.13642,25.25381 7.44987,15.78363 17.42514,5.05077 -5.80838,15.40482 4.67195,14.52095 -15.65736,-1.01016 -18.68782,5.80838 -48.361055,1.76777 z"
       id="path4552"
       inkscape:connector-curvature="0" />
    <path
       style="fill:#222222;fill-opacity:1;stroke:none;stroke-opacity:1"
       d="m 10.606602,208.559 -7.1973372,-8.83883 10.7328702,-3.03047 14.015867,-21.46573 4.924494,-14.52095 5.42957,19.06663 4.293148,16.66752 5.42957,-18.30901 3.156727,-19.1929 9.848987,17.80394 2.146574,-31.31473 5.42957,5.17703 5.303301,-25.50635 2.020305,14.64721 3.156727,-6.43972 -0.252538,20.07678 12.248099,23.86485 11.995564,-21.71828 6.43972,18.18275 7.07107,-14.26841 1.01015,19.69798 9.34391,4.41942 12.75318,3.6618 -3.53554,11.74302 2.39912,11.11168 -10.85915,-0.25254 -17.9302,5.55584 -45.961943,1.38896 -43.057752,-3.6618 -10.101525,2.0203 z"
       id="path4554"
       inkscape:connector-curvature="0"
       sodipodi:nodetypes="ccccccccccccccccccccccccccccccc" />
  </g>
  <g
     inkscape:groupmode="layer"
     id="layer4"
     inkscape:label="Layout 3"
     style="display:none"
     transform="translate(0,-100)">
    <path
       style="fill:#000000;fill-opacity:1;stroke:none;stroke-width:0.72652572;stroke-opacity:1"
       d="m 80.47586,166.63767 16.729105,-4.54568 1.732892,16.54124 -6.398382,-7.19733 z"
       id="path861"
       inkscape:connector-curvature="0" />
    <path
       style="fill:#000000;fill-opacity:1;stroke:none;stroke-width:0.72652572;stroke-opacity:1"
       d="M 63.413507,143.40416 64.746503,87.593236 73.14438,141.00505 67.679095,127.62053 Z"
       id="path859"
       inkscape:connector-curvature="0"
       sodipodi:nodetypes="ccccc" />
    <path
       style="fill:#000000;fill-opacity:1;stroke:none;stroke-width:0.72652572;stroke-opacity:1"
       d="m 102.0704,133.42891 2.46604,15.9099 2.666,-45.58314 -12.39687,37.62819 z"
       id="path857"
       inkscape:connector-curvature="0"
       sodipodi:nodetypes="ccccc" />
    <path
       style="fill:#000000;fill-opacity:1;stroke:none;stroke-width:0.72652572;stroke-opacity:1"
       d="M 59.947716,154.13704 47.3509,107.03867 v 57.83123 l 4.465538,-22.22335 z"
       id="path855"
       inkscape:connector-curvature="0"
       sodipodi:nodetypes="ccccc" />
    <path
       style="fill:#000000;fill-opacity:1;stroke:none;stroke-width:0.72652572;stroke-opacity:1"
       d="m 63.146907,158.68272 12.596816,11.74302 -10.330722,0.50508 -6.265083,3.40927 z"
       id="path853"
       inkscape:connector-curvature="0"
       sodipodi:nodetypes="ccccc" />
    <path
       style="fill:#000000;fill-opacity:1;stroke:none;stroke-width:0.72652572;stroke-opacity:1"
       d="m 74.743976,68.274068 6.331733,28.789348 8.331228,-7.071068 -3.665741,48.992402 -3.399141,-28.15801 -3.932339,1.01016 -3.332491,-13.763332 -6.798282,10.985412 z"
       id="path851"
       inkscape:connector-curvature="0"
       sodipodi:nodetypes="ccccccccc" />
    <path
       style="fill:#545454;fill-opacity:1;stroke:none;stroke-width:0.72652572;stroke-opacity:1"
       d="m 48.084048,158.05138 0.2666,-43.56283 9.864173,35.86041 -8.197928,-22.4759 z"
       id="path827"
       inkscape:connector-curvature="0"
       sodipodi:nodetypes="ccccc" />
    <path
       style="fill:#545454;fill-opacity:1;stroke:none;stroke-width:0.72652572;stroke-opacity:1"
       d="m 104.40315,142.89909 -0.0666,-0.50508 1.79954,-32.19861 -8.731124,27.14785 6.664984,-15.78364 z"
       id="path829"
       inkscape:connector-curvature="0"
       sodipodi:nodetypes="cccccc" />
    <path
       style="fill:#545454;fill-opacity:1;stroke:none;stroke-width:0.72652572;stroke-opacity:1"
       d="m 69.54529,105.27091 5.465285,-30.304581 5.331986,25.758891 7.46478,-6.9448 -2.399394,35.1028 v -28.78934 l -5.331985,2.14657 -4.732138,-16.036174 z"
       id="path831"
       inkscape:connector-curvature="0"
       sodipodi:nodetypes="ccccccccc" />
    <path
       style="fill:#222222;fill-opacity:1;stroke:none;stroke-width:0.72652572;stroke-opacity:1"
       d="m 58.148171,149.71762 -6.998231,-10.6066 -2.932592,17.67766 1.532946,-30.55711 z"
       id="path833"
       inkscape:connector-curvature="0"
       sodipodi:nodetypes="ccccc" />
    <path
       style="fill:#222222;fill-opacity:1;stroke:none;stroke-width:0.72652572;stroke-opacity:1"
       d="m 69.81189,104.51329 5.465284,-20.076781 4.865437,16.920051 5.998485,-3.156719 -0.799799,30.557109 -1.866194,-21.59201 -4.265589,1.51523 -3.998989,-14.268404 z"
       id="path835"
       inkscape:connector-curvature="0"
       sodipodi:nodetypes="ccccccccc" />
    <path
       style="fill:#222222;fill-opacity:1;stroke:none;stroke-width:0.72652572;stroke-opacity:1"
       d="m 97.738162,136.45936 6.798288,-17.29886 -0.1333,22.8547 -2.1328,-10.98541 z"
       id="path837"
       inkscape:connector-curvature="0"
       sodipodi:nodetypes="ccccc" />
    <path
       style="fill:#545454;fill-opacity:1;stroke:none;stroke-width:0.66634375;stroke-opacity:1"
       d="m 64.279954,139.36356 1.133047,-42.805224 6.131783,38.768994 -4.998735,-21.03085 z"
       id="path839"
       inkscape:connector-curvature="0" />
    <path
       style="fill:#222222;fill-opacity:1;stroke:none;stroke-width:0.66634375;stroke-opacity:1"
       d="m 66.279449,112.17216 5.132036,22.09301 -4.332238,-11.04651 -2.799293,14.97652 z"
       id="path841"
       inkscape:connector-curvature="0" />
    <path
       style="fill:#545454;fill-opacity:1;stroke:none;stroke-width:0.72652572;stroke-opacity:1"
       d="m 60.414264,171.94097 3.065892,-10.48033 9.131025,7.82868 -8.531177,-3.91434 z"
       id="path843"
       inkscape:connector-curvature="0" />
    <path
       style="fill:#545454;fill-opacity:1;stroke:none;stroke-width:0.72652572;stroke-opacity:1"
       d="m 83.008554,167.7741 13.063361,-3.283 1.599592,10.85914 -3.46579,-7.44987 z"
       id="path845"
       inkscape:connector-curvature="0"
       sodipodi:nodetypes="ccccc" />
    <path
       style="fill:#222222;fill-opacity:1;stroke:none;stroke-width:0.72652572;stroke-opacity:1"
       d="m 94.605619,167.26902 3.065888,8.08122 -4.532185,-5.17703 -9.53092,-2.39911 z"
       id="path847"
       inkscape:connector-curvature="0" />
    <path
       style="fill:#222222;fill-opacity:1;stroke:none;stroke-width:0.72652572;stroke-opacity:1"
       d="m 64.013355,164.61737 8.531177,4.41941 -7.864679,0.25254 -3.998989,2.27285 z"
       id="path849"
       inkscape:connector-curvature="0" />
  </g>
  <g
     inkscape:groupmode="layer"
     id="layer5"
     inkscape:label="Layout 4"
     transform="translate(0,-100)">
    <path
       style="fill:#000000;fill-opacity:1;stroke:none;stroke-opacity:1"
       d="M 1.4081746,143.77474 22.37433,193.37378 10.952469,186.48937 2.1904936,211.36712 Z"
       id="path880"
       inkscape:connector-curvature="0"
       sodipodi:nodetypes="ccccc" />
    <path
       style="fill:#000000;fill-opacity:1;stroke:none;stroke-opacity:1"
       d="m 19.714445,184.14241 -2.659886,-58.51748 16.898096,55.8576 -8.91844,-10.79601 z"
       id="path878"
       inkscape:connector-curvature="0"
       sodipodi:nodetypes="ccccc" />
    <path
       style="fill:#000000;fill-opacity:1;stroke:none;stroke-opacity:1"
       d="m 19.401517,191.49621 19.088589,17.99334 -13.925282,-1.09524 -11.265397,7.04087 z"
       id="path876"
       inkscape:connector-curvature="0" />
    <path
       style="fill:#000000;fill-opacity:1;stroke:none;stroke-opacity:1"
       d="m 37.707787,205.42149 21.27908,-10.32661 2.97282,23.31311 -9.857227,-9.54429 z"
       id="path874"
       inkscape:connector-curvature="0" />
    <path
       style="fill:#000000;fill-opacity:1;stroke:none;stroke-opacity:1"
       d="m 48.660256,179.29203 20.966151,-41.77585 -5.78916,51.946 -4.69391,-15.48992 z"
       id="path872"
       inkscape:connector-curvature="0"
       sodipodi:nodetypes="ccccc" />
    <path
       style="fill:#000000;fill-opacity:1;stroke:none;stroke-opacity:1"
       d="m 24.251896,146.43463 10.796005,-45.37452 5.006843,36.769 14.707602,-10.79601 -10.796005,54.29296 -2.03403,-36.769 -4.693916,1.87756 -4.850379,-9.54429 z"
       id="path870"
       inkscape:connector-curvature="0"
       sodipodi:nodetypes="ccccccccc" />
    <path
       style="fill:#222222;fill-opacity:1;stroke:none;stroke-opacity:1"
       d="m 26.44239,142.36656 8.292584,-35.36083 3.755132,34.57851 12.986499,-10.63954 -7.353801,43.65342 -0.469391,-32.70095 -5.789162,2.34696 -5.632699,-10.32662 z"
       id="path846"
       inkscape:connector-curvature="0"
       sodipodi:nodetypes="ccccccccc" />
    <path
       style="fill:#222222;fill-opacity:1;stroke:none;stroke-opacity:1"
       d="m 52.415388,176.00629 14.864069,-31.13631 -4.22453,38.80304 -2.65988,-14.39468 z"
       id="path848"
       inkscape:connector-curvature="0" />
    <path
       style="fill:#222222;fill-opacity:1;stroke:none;stroke-opacity:1"
       d="m 29.728131,174.75458 -10.952469,-40.52414 2.03403,44.5922 2.659885,-16.4287 z"
       id="path850"
       inkscape:connector-curvature="0" />
    <path
       style="fill:#222222;fill-opacity:1;stroke:none;stroke-opacity:1"
       d="M 17.367487,189.30572 3.1292766,152.69318 3.9115956,201.5099 8.9184386,182.26484 Z"
       id="path852"
       inkscape:connector-curvature="0" />
    <path
       style="fill:#222222;fill-opacity:1;stroke:none;stroke-opacity:1"
       d="m 41.932311,205.26503 15.020529,-6.88441 2.503417,16.11578 -6.415013,-7.97966 z"
       id="path854"
       inkscape:connector-curvature="0" />
    <path
       style="fill:#222222;fill-opacity:1;stroke:none;stroke-opacity:1"
       d="m 16.741632,211.68005 3.598668,-15.48992 12.517108,11.89125 -9.074903,-2.03403 z"
       id="path856"
       inkscape:connector-curvature="0" />
    <path
       style="fill:#545454;fill-opacity:1;stroke:none;stroke-opacity:1"
       d="m 52.571852,176.31922 12.360645,-21.43555 -2.03403,28.63288 4.85038,-39.74181 z"
       id="path858"
       inkscape:connector-curvature="0" />
    <path
       style="fill:#545454;fill-opacity:1;stroke:none;stroke-opacity:1"
       d="m 43.966341,175.38043 7.979656,-45.21805 -12.986499,11.10894 -4.06806,-35.98669 -8.605512,36.76901 8.13612,-25.50361 3.755132,26.91178 9.700759,-5.94563 z"
       id="path860"
       inkscape:connector-curvature="0" />
    <path
       style="fill:#545454;fill-opacity:1;stroke:none;stroke-opacity:1"
       d="M 3.5986686,201.82282 3.1292766,151.44147 17.993342,189.46218 5.1633066,164.58443 Z"
       id="path862"
       inkscape:connector-curvature="0" />
    <path
       style="fill:#545454;fill-opacity:1;stroke:none;stroke-opacity:1"
       d="m 30.041058,174.59812 -11.42186,-41.77585 2.03403,47.09562 1.408174,-29.41521 z"
       id="path864"
       inkscape:connector-curvature="0" />
    <path
       style="fill:#545454;fill-opacity:1;stroke:none;stroke-opacity:1"
       d="m 41.775847,205.42149 15.80285,-7.82319 2.19049,17.52395 -4.693914,-12.20418 z"
       id="path866"
       inkscape:connector-curvature="0" />
    <path
       style="fill:#545454;fill-opacity:1;stroke:none;stroke-opacity:1"
       d="m 16.115776,211.68005 4.224524,-16.8981 13.768818,13.61236 -11.891252,-7.19734 z"
       id="path868"
       inkscape:connector-curvature="0" />
  </g>
</svg>
