<?xml version="1.0" encoding="UTF-8" standalone="no"?>
<!-- Created with Inkscape (http://www.inkscape.org/) -->

<svg
   xmlns:dc="http://purl.org/dc/elements/1.1/"
   xmlns:cc="http://creativecommons.org/ns#"
   xmlns:rdf="http://www.w3.org/1999/02/22-rdf-syntax-ns#"
   xmlns:svg="http://www.w3.org/2000/svg"
   xmlns="http://www.w3.org/2000/svg"
   xmlns:sodipodi="http://sodipodi.sourceforge.net/DTD/sodipodi-0.dtd"
   xmlns:inkscape="http://www.inkscape.org/namespaces/inkscape"
   width="160"
   height="140"
   viewBox="0 0 160 140"
   version="1.1"
   id="svg8"
   inkscape:version="0.92.3 (2405546, 2018-03-11)"
   sodipodi:docname="rising-big-0.svg">
  <defs
     id="defs2" />
  <sodipodi:namedview
     id="base"
     pagecolor="#ffffff"
     bordercolor="#666666"
     borderopacity="1.0"
     inkscape:pageopacity="0.0"
     inkscape:pageshadow="2"
     inkscape:zoom="3.959798"
     inkscape:cx="12.630808"
     inkscape:cy="42.914641"
     inkscape:document-units="px"
     inkscape:current-layer="layer3"
     showgrid="true"
     units="px"
     inkscape:window-width="1717"
     inkscape:window-height="1353"
     inkscape:window-x="67"
     inkscape:window-y="27"
     inkscape:window-maximized="0"
     inkscape:snap-global="false"
     showguides="false">
    <inkscape:grid
       type="xygrid"
       id="grid4537"
       empspacing="1"
       spacingx="1"
       spacingy="1" />
  </sodipodi:namedview>
  <metadata
     id="metadata5">
    <rdf:RDF>
      <cc:Work
         rdf:about="">
        <dc:format>image/svg+xml</dc:format>
        <dc:type
           rdf:resource="http://purl.org/dc/dcmitype/StillImage" />
        <dc:title></dc:title>
      </cc:Work>
    </rdf:RDF>
  </metadata>
  <g
     inkscape:label="Layout"
     inkscape:groupmode="layer"
     id="layer1"
     transform="translate(0,-509.99998)"
     style="display:none">
    <path
       style="fill:#000000;fill-opacity:1;stroke:none;stroke-width:1px;stroke-linecap:butt;stroke-linejoin:miter;stroke-opacity:1"
       d="m 15.333562,622.05919 4.937184,2.71478 7.58249,1.25186 83.873904,-0.0593 8.75218,-1.69381 7.3281,-4.75938 -0.24168,-8.16787 -4.52588,-2.95649 -11.26487,-1.57837 -83.928066,0.0854 -10.101525,1.07328 -2.67966,1.63701 -1.400862,6.19912 z"
       id="path814"
       inkscape:connector-curvature="0"
       sodipodi:nodetypes="cccccccccccccc" />
    <path
       style="fill:#e20000;fill-opacity:1;stroke:none;stroke-width:1px;stroke-linecap:butt;stroke-linejoin:miter;stroke-opacity:1"
       d="m 16.105839,610.28683 -1.076548,5.51721 1.244288,5.73157 4.532225,2.33598 7.765548,0.82075 87.437958,-3.40412 8.83991,-6.12405 1.45476,-3.22435 -3.16941,-2.91951 -11.54356,-1.33665 -83.48323,0.004 -9.113037,1.16258 z"
       id="path816"
       inkscape:connector-curvature="0"
       sodipodi:nodetypes="ccccccccccccc" />
  </g>
  <g
     inkscape:groupmode="layer"
     id="layer2"
     inkscape:label="Layout 1"
     style="display:none"
     transform="translate(0,-100)">
    <path
       style="fill:none;stroke:#000000;stroke-width:1px;stroke-linecap:butt;stroke-linejoin:miter;stroke-opacity:1"
       d="m 16.414979,217.77664 c -8.3592743,2.01752 -18.310978,-12.21911 -14.7734811,-18.94036 1.9342356,-3.67504 5.954942,-5.88753 8.9651041,-8.58629 5.685746,-5.09757 10.957,-10.87378 14.520943,-17.67767 4.264604,-8.14152 4.730234,-17.50282 4.166879,-26.51651"
       id="path4539"
       inkscape:connector-curvature="0" />
    <path
       style="fill:none;stroke:#000000;stroke-width:1px;stroke-linecap:butt;stroke-linejoin:miter;stroke-opacity:1"
       d="m 129.42579,215.25126 c 9.67587,-2.17348 16.65426,-13.15749 11.74303,-22.60216 -1.44768,-2.784 -4.06721,-4.72846 -6.18719,-6.9448 -2.56992,-2.68674 -4.87186,-5.58129 -6.69226,-8.83883 -5.70896,-10.21605 -11.26959,-27.04502 -7.70241,-38.63834"
       id="path4541"
       inkscape:connector-curvature="0" />
    <path
       style="fill:none;stroke:#000000;stroke-width:1px;stroke-linecap:butt;stroke-linejoin:miter;stroke-opacity:1"
       d="m 50.633896,184.94669 c -0.385914,-16.2746 -1.995887,-32.76924 -2.904188,-49.11867"
       id="path4543"
       inkscape:connector-curvature="0" />
    <path
       style="fill:none;stroke:#000000;stroke-width:1px;stroke-linecap:butt;stroke-linejoin:miter;stroke-opacity:1"
       d="m 88.893424,182.29504 c 9.511505,-11.08516 12.939146,-26.58925 17.046326,-40.27984 1.80262,-6.00875 4.45222,-12.03334 5.68211,-18.18274"
       id="path4545"
       inkscape:connector-curvature="0" />
    <path
       style="fill:none;stroke:#000000;stroke-width:1px;stroke-linecap:butt;stroke-linejoin:miter;stroke-opacity:1"
       d="m 93.312841,161.2081 c -10.106867,-3.03123 -10.88568,-22.05284 -10.732871,-30.30457 0.08159,-4.40597 0.790638,-8.74169 1.010153,-13.13199"
       id="path4547"
       inkscape:connector-curvature="0" />
    <path
       style="fill:none;stroke:#000000;stroke-width:1px;stroke-linecap:butt;stroke-linejoin:miter;stroke-opacity:1"
       d="m 56.94735,160.07168 c 4.413037,-9.37529 3.20724,-20.10205 6.439722,-29.7995"
       id="path4549"
       inkscape:connector-curvature="0" />
  </g>
  <g
     inkscape:groupmode="layer"
     id="layer3"
     inkscape:label="Layout 2"
     transform="translate(0,-100)">
    <path
       style="fill:#0d0d0d;fill-opacity:1;stroke:none;stroke-opacity:1"
       d="m 1.9964634,213.86692 13.1319836,-7.44988 13.763328,-18.05647 4.419418,-17.67767 2.399112,-22.85471 13.005714,23.73859 1.515229,12.37437 2.777919,-15.5311 -0.378807,-29.16815 10.985409,26.64277 5.303301,-27.14785 4.545686,9.34391 6.439723,-37.24937 8.333758,23.73858 7.954952,-7.57614 -1.894036,31.56727 5.555836,15.9099 11.869281,-20.20305 9.21764,-22.22336 -1.51522,28.91562 v 6.81853 l 11.23794,-19.95052 1.6415,30.43085 6.43972,15.27856 18.05648,4.79822 -5.68211,17.29886 5.55584,17.1726 -17.04632,-1.01015 -19.95052,5.42957 -49.876267,1.38895 -42.678945,-4.16687 -14.77348,2.0203 0.757614,-9.84899 z"
       id="path4558"
       inkscape:connector-curvature="0"
       sodipodi:nodetypes="cccccccccccccccccccccccccccccccccc" />
    <path
       style="fill:#545454;fill-opacity:1;stroke:none;stroke-opacity:1"
       d="m 27.755354,232.42847 -13.131983,1.89404 0.757614,-8.08122 -10.480333,-11.61676 11.995562,-6.18718 14.394674,-18.81409 4.798224,-18.56156 1.262691,-17.5514 8.207489,19.06663 5.177032,22.09709 4.545687,-25.38008 v -21.59201 l 8.712565,26.01142 6.060916,-29.16815 4.04061,10.85914 6.313453,-37.88072 6.81853,21.97082 5.808377,-6.9448 -1.515229,26.64277 8.20749,20.20305 14.015857,-23.99112 5.80837,-16.92006 -2.52538,23.10724 0.75762,12.87945 10.73287,-20.07678 1.13642,25.25381 7.44987,15.78363 17.42514,5.05077 -5.80838,15.40482 4.67195,14.52095 -15.65736,-1.01016 -18.68782,5.80838 -48.361043,1.76777 z"
       id="path4552"
       inkscape:connector-curvature="0" />
    <path
       style="fill:#222222;fill-opacity:1;stroke:none;stroke-opacity:1"
       d="m 18.285174,224.09471 -7.197337,-8.83883 10.73287,-3.03047 14.015867,-21.46573 4.924494,-14.52095 5.42957,19.06663 4.293148,16.66752 5.42957,-18.30901 3.156727,-19.1929 9.848987,17.80394 2.146574,-31.31473 5.42957,5.17703 5.303301,-25.50635 2.020305,14.64721 3.156727,-6.43972 -0.252538,20.07678 12.248099,23.86485 11.995552,-21.71828 6.43972,18.18275 7.07107,-14.26841 1.01015,19.69798 9.34391,4.41942 12.75318,3.6618 -3.53554,11.74302 2.39912,11.11168 -10.85915,-0.25254 -17.9302,5.55584 -45.961931,1.38896 -43.057752,-3.6618 -10.101525,2.0203 z"
       id="path4554"
       inkscape:connector-curvature="0"
       sodipodi:nodetypes="ccccccccccccccccccccccccccccccc" />
  </g>
</svg>
