<?xml version="1.0" encoding="UTF-8" standalone="no"?>
<!-- Created with Inkscape (http://www.inkscape.org/) -->

<svg
   xmlns:osb="http://www.openswatchbook.org/uri/2009/osb"
   xmlns:dc="http://purl.org/dc/elements/1.1/"
   xmlns:cc="http://creativecommons.org/ns#"
   xmlns:rdf="http://www.w3.org/1999/02/22-rdf-syntax-ns#"
   xmlns:svg="http://www.w3.org/2000/svg"
   xmlns="http://www.w3.org/2000/svg"
   xmlns:sodipodi="http://sodipodi.sourceforge.net/DTD/sodipodi-0.dtd"
   xmlns:inkscape="http://www.inkscape.org/namespaces/inkscape"
   width="640"
   height="480"
   viewBox="0 0 640 480"
   version="1.1"
   id="svg8"
   inkscape:version="0.92.3 (2405546, 2018-03-11)"
   sodipodi:docname="win.svg">
  <defs
     id="defs2">
    <linearGradient
       id="linearGradient926"
       osb:paint="solid">
      <stop
         style="stop-color:#000000;stop-opacity:1;"
         offset="0"
         id="stop924" />
    </linearGradient>
  </defs>
  <sodipodi:namedview
     id="base"
     pagecolor="#000000"
     bordercolor="#666666"
     borderopacity="1.0"
     inkscape:pageopacity="0"
     inkscape:pageshadow="2"
     inkscape:zoom="1.7890886"
     inkscape:cx="375.25599"
     inkscape:cy="277.90221"
     inkscape:document-units="px"
     inkscape:current-layer="layer3"
     showgrid="true"
     units="px"
     inkscape:window-width="2493"
     inkscape:window-height="1374"
     inkscape:window-x="67"
     inkscape:window-y="27"
     inkscape:window-maximized="1"
     inkscape:snap-global="false"
     inkscape:pagecheckerboard="true">
    <inkscape:grid
       type="xygrid"
       id="grid4537"
       empspacing="1"
       spacingx="1"
       spacingy="1"
       visible="false" />
  </sodipodi:namedview>
  <metadata
     id="metadata5">
    <rdf:RDF>
      <cc:Work
         rdf:about="">
        <dc:format>image/svg+xml</dc:format>
        <dc:type
           rdf:resource="http://purl.org/dc/dcmitype/StillImage" />
        <dc:title></dc:title>
      </cc:Work>
    </rdf:RDF>
  </metadata>
  <g
     inkscape:label="Layout"
     inkscape:groupmode="layer"
     id="layer1"
     transform="translate(0,-169.99998)"
     style="display:none">
    <rect
       style="fill:#ff7a00;fill-opacity:1;stroke:none;stroke-width:1.35435808;stroke-opacity:1"
       id="rect4539-3"
       width="107"
       height="240"
       x="1.4210855e-14"
       y="289.99997" />
    <rect
       style="fill:#ff7a00;fill-opacity:1;stroke:none;stroke-width:1.35435808;stroke-opacity:1"
       id="rect4539-3-6"
       width="107"
       height="240"
       x="533"
       y="289.99997" />
    <rect
       style="fill:#ff7a00;fill-opacity:1;stroke:none;stroke-width:1.91087115;stroke-opacity:1"
       id="rect4539-7"
       width="426"
       height="120"
       x="107"
       y="169.99998" />
    <rect
       style="fill:#ff7a00;fill-opacity:1;stroke:none;stroke-width:1.91087115;stroke-opacity:1"
       id="rect4539-7-5"
       width="426"
       height="120"
       x="107"
       y="530" />
    <rect
       style="fill:#00ff1e;fill-opacity:1;stroke:none;stroke-width:1.35435808;stroke-opacity:1"
       id="rect4539-3-3"
       width="107"
       height="240"
       x="-107"
       y="289.99997" />
    <rect
       style="fill:#00ff1e;fill-opacity:1;stroke:none;stroke-width:1.35435808;stroke-opacity:1"
       id="rect4539-3-3-6"
       width="107"
       height="240"
       x="640"
       y="289.99997" />
    <rect
       style="fill:#00ff1e;fill-opacity:1;stroke:none;stroke-width:1.91087115;stroke-opacity:1"
       id="rect4539-7-5-7"
       width="426"
       height="120"
       x="107"
       y="650" />
    <rect
       style="fill:#00ff1e;fill-opacity:1;stroke:none;stroke-width:1.91087115;stroke-opacity:1"
       id="rect4539-7-5-7-5"
       width="426"
       height="120"
       x="107"
       y="49.999977" />
    <path
       style="fill:none;stroke:#000000;stroke-width:1px;stroke-linecap:butt;stroke-linejoin:miter;stroke-opacity:1"
       d="m 115.35714,482.14284 413.92857,-7.85715 v 6.07143 l -415,6.07143 z"
       id="path1551"
       inkscape:connector-curvature="0" />
    <path
       style="fill:none;stroke:#000000;stroke-width:1px;stroke-linecap:butt;stroke-linejoin:miter;stroke-opacity:1"
       d="m 116.07143,425.71427 445.35714,0.71428 1.07143,-6.78571 -447.85714,1.07143 z"
       id="path1553"
       inkscape:connector-curvature="0" />
    <path
       style="fill:none;stroke:#000000;stroke-width:1px;stroke-linecap:butt;stroke-linejoin:miter;stroke-opacity:1"
       d="m 106.78571,374.28569 463.57143,0.71429 -2.5,-5 -461.78571,0.35714 z"
       id="path1555"
       inkscape:connector-curvature="0" />
    <path
       style="fill:none;stroke:#000000;stroke-width:1px;stroke-linecap:butt;stroke-linejoin:miter;stroke-opacity:1"
       d="m 94.285714,330.35712 362.499996,0.35715 -0.35714,-5.71429 H 93.928572 Z"
       id="path1557"
       inkscape:connector-curvature="0" />
    <path
       style="fill:none;stroke:#000000;stroke-width:1px;stroke-linecap:butt;stroke-linejoin:miter;stroke-opacity:1"
       d="m 118.92857,530.71427 388.92857,-1.07143 -3.57143,6.07143 -379.64285,-1.07143 z"
       id="path1559"
       inkscape:connector-curvature="0" />
    <path
       style="fill:none;stroke:#000000;stroke-width:1px;stroke-linecap:butt;stroke-linejoin:miter;stroke-opacity:1"
       d="m 164.28572,574.2857 281.42857,0.71428 -3.92857,4.64286 -275.71429,-0.71429 z"
       id="path1561"
       inkscape:connector-curvature="0" />
    <path
       style="fill:none;stroke:#000000;stroke-width:1px;stroke-linecap:butt;stroke-linejoin:miter;stroke-opacity:1"
       d="m 83.337585,283.81968 266.175195,1.01015 -1.51523,-6.06091 -270.215804,1.01015 z"
       id="path1563"
       inkscape:connector-curvature="0" />
    <path
       style="fill:none;stroke:#000000;stroke-width:1px;stroke-linecap:butt;stroke-linejoin:miter;stroke-opacity:1"
       d="M 72.678572,239.28569 H 218.03571 l -1.42857,-5.71428 -147.678568,1.07143 z"
       id="path1565"
       inkscape:connector-curvature="0" />
    <path
       style="fill:none;stroke:#000000;stroke-width:1px;stroke-linecap:butt;stroke-linejoin:miter;stroke-opacity:1"
       d="M 179.64286,619.64284 180,625.35712 300.53571,624.46427 303.75,619.82141 Z"
       id="path1567"
       inkscape:connector-curvature="0" />
    <path
       style="fill:none;stroke:#000000;stroke-width:1px;stroke-linecap:butt;stroke-linejoin:miter;stroke-opacity:1"
       d="m 307.14286,479.28569 0.71428,-53.21428 6.78572,0.35714 -0.35715,53.21429 z"
       id="path1569"
       inkscape:connector-curvature="0" />
    <path
       style="fill:none;stroke:#000000;stroke-width:1px;stroke-linecap:butt;stroke-linejoin:miter;stroke-opacity:1"
       d="m 307.14286,370.35712 h 6.78571 l -1.78571,-40.71428 -5.35715,-0.35715 z"
       id="path1571"
       inkscape:connector-curvature="0" />
    <path
       style="fill:none;stroke:#000000;stroke-width:1px;stroke-linecap:butt;stroke-linejoin:miter;stroke-opacity:1"
       d="m 306.07143,534.64284 8.21428,-0.35715 -1.42857,40 -7.5,-0.35714 z"
       id="path1573"
       inkscape:connector-curvature="0" />
    <path
       style="fill:none;stroke:#000000;stroke-width:1px;stroke-linecap:butt;stroke-linejoin:miter;stroke-opacity:1"
       d="m 485.35714,481.78569 -2.14285,46.78572 h 5.35714 l 2.5,-48.57143 z"
       id="path1575"
       inkscape:connector-curvature="0" />
    <path
       style="fill:none;stroke:#000000;stroke-width:1px;stroke-linecap:butt;stroke-linejoin:miter;stroke-opacity:1"
       d="m 488.57143,418.92855 7.14286,1.42857 -3.21429,-46.78571 -5.35714,0.35714 z"
       id="path1577"
       inkscape:connector-curvature="0" />
    <path
       style="fill:none;stroke:#000000;stroke-width:1px;stroke-linecap:butt;stroke-linejoin:miter;stroke-opacity:1"
       d="m 111.07143,324.28569 v -40 l -7.14286,-1.07142 2.14286,41.07142 z"
       id="path1579"
       inkscape:connector-curvature="0" />
    <path
       style="fill:none;stroke:#000000;stroke-width:1px;stroke-linecap:butt;stroke-linejoin:miter;stroke-opacity:1"
       d="M 288.92857,278.92855 290,266.07141 l 4.28571,1.42857 -0.71428,11.07143 z"
       id="path1581"
       inkscape:connector-curvature="0" />
  </g>
  <g
     inkscape:groupmode="layer"
     id="layer2"
     inkscape:label="Layout 1"
     style="display:none">
    <path
       style="fill:none;stroke:#000000;stroke-width:1px;stroke-linecap:butt;stroke-linejoin:miter;stroke-opacity:1"
       d="M 68.690373,59.776541 194.95945,488.08122 469.21586,385.04566 584.37325,210.79435 95.964492,21.895821 Z"
       id="path1547"
       inkscape:connector-curvature="0"
       sodipodi:nodetypes="cccccc" />
  </g>
  <g
     inkscape:groupmode="layer"
     id="layer3"
     inkscape:label="Layout 2">
    <path
       style="fill:#000000;fill-opacity:1;stroke:none;stroke-opacity:1"
       d="m 509.65291,204.72024 -2.76663,-13.04268 -142.6791,2.56901 -124.89362,6.52134 -77.46566,1.38332 2.3714,6.52134 -5.13803,0.59285 -2.96425,11.65938 9.88083,11.26413 -9.4856,1.97617 8.69513,17.19263 135.36729,2.17378 0.59285,-8.10227 3.16186,0.98808 5.13803,7.11419 196.23317,0.19762 -2.96425,-16.20455 13.2403,0.59285 -2.17378,-23.51636 -4.34756,-5.9285 -2.3714,-0.59285 z"
       id="path958"
       inkscape:connector-curvature="0" />
    <path
       style="fill:#715313;fill-opacity:1;stroke:none;stroke-width:1.18271554px;stroke-linecap:butt;stroke-linejoin:miter;stroke-opacity:1"
       d="m 163.39833,203.2299 76.1875,-1.04681 126.0417,-6.97876 139.8475,-1.39574 2.0453,10.81704 -9.45953,1.04683 10.73784,4.88511 v 21.98303 l -11.76048,-0.69785 v 5.23405 l 2.0453,9.77023 -94.17648,-0.19076 -99.90736,-0.9452 -1.27832,-5.93194 -7.92554,2.44258 -1.27832,5.58299 -130.56082,-2.48886 -5.67154,-10.68162 10.73784,-1.39574 -0.76698,-6.62979 -10.73784,-5.583 1.78962,-10.81706 7.41424,-0.34892 z"
       id="path918"
       inkscape:connector-curvature="0"
       sodipodi:nodetypes="cccccccccccccccccccccccc" />
    <path
       style="fill:#000000;fill-opacity:1;stroke:none;stroke-opacity:1"
       d="m 228.70392,221.02544 3.84274,-10.13085 6.70733,-3.70301 9.92125,2.93446 4.12221,9.50204 -3.84274,0.13974 -5.58944,-3.42353 -4.26194,-0.20961 -2.37551,5.10037 2.02617,6.91693 2.44538,-1.67683 -1.81657,-1.88644 v -5.17023 l 10.48019,0.76855 3.35367,6.42785 -1.81657,6.35799 -11.10901,3.56326 -9.43217,-5.93877 z"
       id="path952"
       inkscape:connector-curvature="0"
       sodipodi:nodetypes="ccccccccccccccccccc" />
    <path
       style="fill:#000000;fill-opacity:1;stroke:none;stroke-opacity:1"
       d="m 208.97943,233.86867 4.7428,4.14995 5.03922,-0.29642 v -3.95233 l 4.74279,3.75471 9.5844,-0.29643 -1.38331,-22.52827 -4.64399,-5.63207 -5.43445,0.49404 0.49404,12.15341 -8.00347,-12.35103 -6.0273,0.59285 z"
       id="path948"
       inkscape:connector-curvature="0" />
    <path
       style="fill:#000000;fill-opacity:1;stroke:none;stroke-width:1px;stroke-linecap:butt;stroke-linejoin:miter;stroke-opacity:1"
       d="m 290.60695,206.63264 20.25178,-0.40226 4.76096,10.88246 -8.66363,-0.27948 -0.69868,20.12198 -6.28812,-0.27947 -5.0305,-4.33181 0.69868,-18.16568 h -5.30996 z"
       id="path920"
       inkscape:connector-curvature="0"
       sodipodi:nodetypes="cccccccccc" />
    <g
       inkscape:label="Layout"
       id="layer1-5-3"
       transform="translate(247.41907,-291.58091)"
       style="fill:#715313;fill-opacity:1;stroke:none" />
    <path
       style="fill:#000000;fill-opacity:1;stroke:none;stroke-opacity:1"
       d="m 191.95337,214.38799 6.28811,-5.17024 7.89509,5.2401 5.30996,8.03482 -0.13973,10.55007 -10.41033,5.86891 -8.24442,-6.70733 -3.21393,-10.20073 z"
       id="path950"
       inkscape:connector-curvature="0"
       sodipodi:nodetypes="ccccccccc" />
    <path
       style="fill:#fbf700;fill-opacity:1;stroke:none;stroke-width:1px;stroke-linecap:butt;stroke-linejoin:miter;stroke-opacity:1"
       d="m 209.77697,233.44917 -0.9762,-23.04524 4.91071,-0.0893 9.17381,18.15121 -0.56787,-18.12265 4.50596,-0.45594 0.90596,23.28452 h -8.13216 l -6.59998,-15.35714 1.25,15.35714 z"
       id="path870"
       inkscape:connector-curvature="0"
       sodipodi:nodetypes="ccccccccccc" />
    <path
       style="fill:#000000;fill-opacity:1;stroke:none;stroke-opacity:1"
       d="m 251.41101,208.16974 11.38848,-0.20961 8.80337,10.27059 -5.30997,4.89076 7.82522,13.20505 -7.05667,0.2096 -3.98247,-2.09604 0.62881,3.35367 -6.63746,-0.0699 -5.65931,-4.47155 z"
       id="path954"
       inkscape:connector-curvature="0"
       sodipodi:nodetypes="ccccccccccc" />
    <path
       style="fill:#fbf700;fill-opacity:1;stroke:none;stroke-width:1px;stroke-linecap:butt;stroke-linejoin:miter;stroke-opacity:1"
       d="m 252.3722,208.7075 0.26785,24.55357 5.53572,-0.17857 -0.89286,-10.80357 5.44643,10.89285 6.51785,-0.53571 -6.60714,-10.98214 5.44643,-5.71429 -5.71428,-7.14286 z"
       id="path874"
       inkscape:connector-curvature="0"
       sodipodi:nodetypes="cccccccccc" />
    <path
       style="fill:#000000;fill-opacity:1;stroke:none;stroke-width:1px;stroke-linecap:butt;stroke-linejoin:miter;stroke-opacity:1"
       d="m 256.62572,214.2029 -0.12627,3.40926 4.04061,0.12627 v -3.78807 z"
       id="path876"
       inkscape:connector-curvature="0" />
    <path
       style="fill:#000000;fill-opacity:1;stroke:none;stroke-opacity:1"
       d="m 273.34956,206.98198 12.71597,0.0699 3.14406,7.68547 4.26195,21.79881 -5.10037,0.0699 -4.89075,-3.91261 -1.39736,-5.6593 h -2.58512 l 0.76855,9.1527 h -4.33182 l -4.68115,-4.05234 z"
       id="path956"
       inkscape:connector-curvature="0" />
    <path
       style="fill:#fbf700;fill-opacity:1;stroke:none;stroke-width:1px;stroke-linecap:butt;stroke-linejoin:miter;stroke-opacity:1"
       d="m 272.31297,232.56051 c 0,-0.50507 1.6011,-24.77567 1.6011,-24.77567 h 11.36421 l 3.91434,24.74874 h -4.54568 l -2.65165,-9.47018 -4.54569,0.50508 -0.69028,9.16124 z"
       id="path878"
       inkscape:connector-curvature="0"
       sodipodi:nodetypes="ccccccccc" />
    <path
       style="fill:#000000;fill-opacity:1;stroke:none;stroke-width:1px;stroke-linecap:butt;stroke-linejoin:miter;stroke-opacity:1"
       d="m 277.32333,218.13891 5.05077,-0.25254 -1.13643,-4.67196 -3.28299,-0.63134 z"
       id="path880"
       inkscape:connector-curvature="0" />
    <path
       style="fill:#fbf700;fill-opacity:1;stroke:none;stroke-width:1px;stroke-linecap:butt;stroke-linejoin:miter;stroke-opacity:1"
       d="m 291.21148,207.4575 18.57502,-0.39523 0.17498,5.75237 -7.5,0.17858 -0.53571,19.28571 -5.53572,-0.17857 0.53572,-19.10715 -5.71429,0.17858 z"
       id="path882"
       inkscape:connector-curvature="0"
       sodipodi:nodetypes="ccccccccc" />
    <path
       style="fill:#000000;fill-opacity:1;stroke:none;stroke-width:1px;stroke-linecap:butt;stroke-linejoin:miter;stroke-opacity:1"
       d="m 326.63484,207.1676 6.73131,0.16372 3.21393,6.28812 0.41921,14.25306 -6.42786,8.94311 -9.50204,-0.27948 -8.80337,-11.87755 0.69868,-18.02594 6.42786,0.27947 3.49339,7.26627 -0.27947,10.61993 0.69868,0.83842 2.23578,-2.51525 z"
       id="path922"
       inkscape:connector-curvature="0"
       sodipodi:nodetypes="cccccccccccccc" />
    <path
       style="fill:#fbf700;fill-opacity:1;stroke:none;stroke-width:1px;stroke-linecap:butt;stroke-linejoin:miter;stroke-opacity:1"
       d="m 313.71148,207.81464 v 17.14286 l 5.71429,6.96429 8.39285,0.17857 c 0,0 4.28572,-6.60714 4.46429,-7.32143 0.17857,-0.71429 0.22024,-16.54642 0.22024,-16.54642 l -4.68453,-0.0607 -1.07143,15.35714 -3.39285,3.57143 -3.92857,-4.10714 -0.35715,-15.17858 z"
       id="path884"
       inkscape:connector-curvature="0"
       sodipodi:nodetypes="cccccccccccc" />
    <path
       style="fill:#000000;fill-opacity:1;stroke:none;stroke-opacity:1"
       d="m 336.44206,207.19045 -0.69166,24.50444 4.14995,4.84161 19.26761,0.19761 -0.69166,-8.79393 -5.13803,-3.75471 h -6.42253 l 0.0725,-10.36971 -4.42003,-6.82293 z"
       id="path944"
       inkscape:connector-curvature="0"
       sodipodi:nodetypes="cccccccccc" />
    <path
       style="fill:#fbf700;fill-opacity:1;stroke:none;stroke-width:1px;stroke-linecap:butt;stroke-linejoin:miter;stroke-opacity:1"
       d="m 337.32458,208.14916 -0.5393,23.03929 17.16549,0.0988 -0.51666,-6.15477 -11.26905,-0.2738 v -16.78571 z"
       id="path888"
       inkscape:connector-curvature="0"
       sodipodi:nodetypes="ccccccc" />
    <path
       style="fill:#000000;fill-opacity:1;stroke:none;stroke-opacity:1"
       d="m 359.56319,205.31309 8.69512,1.08689 9.28798,30.72937 -5.9285,-0.0988 -4.44637,-6.32373 -0.88927,-3.06305 -0.19761,8.79393 -4.74279,0.19762 -5.63207,-5.33565 z"
       id="path932"
       inkscape:connector-curvature="0"
       sodipodi:nodetypes="cccccccccc" />
    <path
       style="fill:#fbf700;fill-opacity:1;stroke:none;stroke-width:1px;stroke-linecap:butt;stroke-linejoin:miter;stroke-opacity:1"
       d="m 356.56862,231.56464 0.17857,-1.42857 3.21429,-23.57143 7.5,0.71429 6.60714,23.92857 -6.07143,-0.35714 -1.42857,-7.85714 -3.75,0.17857 -1.25,8.21428 z"
       id="path890"
       inkscape:connector-curvature="0" />
    <path
       style="fill:#000000;fill-opacity:1;stroke:none;stroke-width:1px;stroke-linecap:butt;stroke-linejoin:miter;stroke-opacity:1"
       d="m 363.35434,218.17179 h 3.21428 l -2.85714,-5.17857 z"
       id="path892"
       inkscape:connector-curvature="0" />
    <path
       style="fill:#000000;fill-opacity:1;stroke:none;stroke-opacity:1"
       d="m 188.92136,226.85329 4.74279,4.54518 0.29643,7.41062 -11.56057,-1.87736 -4.74279,-5.53326 -4.84161,-7.41062 4.94042,-10.67129 11.36294,-2.3714 4.24876,5.03922 0.0988,5.13803 -10.27606,1.67974 -1.48212,3.06306 0.88927,0.69165 z"
       id="path946"
       inkscape:connector-curvature="0"
       sodipodi:nodetypes="cccccccccccccc" />
    <path
       style="fill:#fbf700;fill-opacity:1;stroke:none;stroke-width:1px;stroke-linecap:butt;stroke-linejoin:miter;stroke-opacity:1"
       d="m 188.89005,211.74321 -10.53571,2.5 -4.28571,9.64286 4.99999,7.67857 9.64286,1.60714 -0.17857,-5.53571 -6.96428,-0.35715 -3.39286,-4.10714 3.03571,-5.53571 7.14286,-1.60715 z"
       id="path894"
       inkscape:connector-curvature="0"
       sodipodi:nodetypes="ccccccccccc" />
    <path
       style="fill:#fbf700;fill-opacity:1;stroke:none;stroke-width:1px;stroke-linecap:butt;stroke-linejoin:miter;stroke-opacity:1"
       d="m 190.4972,221.92178 2.14285,-6.60714 5.71429,-4.82143 6.60714,4.46429 2.32143,7.14286 -0.89286,6.78571 -6.96428,4.82143 -6.07143,-3.39286 z"
       id="path896"
       inkscape:connector-curvature="0" />
    <path
       style="fill:#000000;fill-opacity:1;stroke:none;stroke-width:1px;stroke-linecap:butt;stroke-linejoin:miter;stroke-opacity:1"
       d="m 199.06863,214.9575 3.75,4.46428 0.17857,5.89286 -3.92857,3.57143 -3.25238,-4.28571 -0.49404,-4.70358 z"
       id="path898"
       inkscape:connector-curvature="0"
       sodipodi:nodetypes="ccccccc" />
    <path
       style="fill:#fbf700;fill-opacity:1;stroke:none;stroke-width:1px;stroke-linecap:butt;stroke-linejoin:miter;stroke-opacity:1"
       d="m 229.78291,221.2075 3.57143,-9.46429 5.89286,-3.57143 8.75,2.85715 1.78571,4.64285 -4.08809,0.53931 -2.17737,-2.99763 -4.09168,-1.1131 -3.03572,2.14285 -2.67857,6.60715 1.8619,6.27262 4.03096,2.12023 5.69166,-4.08451 -4.54405,-0.53572 -0.25475,-4.48691 9.28571,0.53571 0.17857,5.71429 -3.03571,3.92857 -7.32143,3.03572 -7.54525,-3.94762 z"
       id="path900"
       inkscape:connector-curvature="0"
       sodipodi:nodetypes="ccccccccccccccccccccc" />
    <path
       style="fill:#000000;fill-opacity:1;stroke:none;stroke-opacity:1"
       d="m 373.89038,206.00475 0.19762,6.91658 4.14995,3.45829 h 2.4702 l -0.0988,16.00693 3.85353,5.03922 7.11419,0.29643 -0.49404,-21.24378 7.01538,0.19762 -0.0988,-7.31181 -4.34756,-3.95233 z"
       id="path942"
       inkscape:connector-curvature="0" />
    <path
       style="fill:#fbf700;fill-opacity:1;stroke:none;stroke-width:1px;stroke-linecap:butt;stroke-linejoin:miter;stroke-opacity:1"
       d="m 374.76028,206.58727 0.18215,5.75238 6.62619,-0.0607 -0.17857,19.28571 5.53572,0.17857 -0.29642,-19.19049 6.72499,0.0834 -0.17857,-6.25 z"
       id="path902"
       inkscape:connector-curvature="0"
       sodipodi:nodetypes="ccccccccc" />
    <path
       style="fill:#000000;fill-opacity:1;stroke:none;stroke-opacity:1"
       d="m 395.6282,205.70833 6.81777,-0.49405 4.34756,5.13803 1.1857,26.67823 h -7.01539 l -5.43445,-5.63207 z"
       id="path930"
       inkscape:connector-curvature="0" />
    <path
       style="fill:#fbf700;fill-opacity:1;stroke:none;stroke-width:1px;stroke-linecap:butt;stroke-linejoin:miter;stroke-opacity:1"
       d="m 396.21148,206.38607 0.35714,25 6.25,0.17857 -0.53571,-25.53571 z"
       id="path904"
       inkscape:connector-curvature="0" />
    <path
       style="fill:#000000;fill-opacity:1;stroke:none;stroke-opacity:1"
       d="m 404.0269,218.15816 2.66782,-7.11419 7.01539,-5.13803 9.48559,5.73088 4.64398,8.10228 -1.67974,11.85699 -10.47367,6.12611 -8.49751,-8.00347 z"
       id="path940"
       inkscape:connector-curvature="0" />
    <path
       style="fill:#fbf700;fill-opacity:1;stroke:none;stroke-width:1px;stroke-linecap:butt;stroke-linejoin:miter;stroke-opacity:1"
       d="m 404.96148,218.35036 2.5,-6.42857 6.42857,-5.17858 8.39286,5.53572 1.78571,8.57143 -2.85714,7.5 -7.32143,4.10714 -6.96428,-5.35714 z"
       id="path906"
       inkscape:connector-curvature="0" />
    <path
       style="fill:#000000;fill-opacity:1;stroke:none;stroke-width:1px;stroke-linecap:butt;stroke-linejoin:miter;stroke-opacity:1"
       d="m 414.60434,211.74321 4.28571,4.10715 0.17857,7.67857 -4.28571,3.57143 -4.64286,-4.28572 -0.35714,-6.25 z"
       id="path908"
       inkscape:connector-curvature="0" />
    <path
       style="fill:#000000;fill-opacity:1;stroke:none;stroke-opacity:1"
       d="m 427.24683,205.01667 0.0988,27.07346 4.84161,6.42253 5.43445,-0.49404 v -7.60823 l 4.14995,7.41061 11.16533,0.29643 1.87735,-24.99849 -4.05114,-7.60824 -8.00346,-0.59284 -0.59285,18.18072 -7.50943,-17.9831 z"
       id="path934"
       inkscape:connector-curvature="0"
       sodipodi:nodetypes="ccccccccccccc" />
    <path
       style="fill:#fbf700;fill-opacity:1;stroke:none;stroke-width:1px;stroke-linecap:butt;stroke-linejoin:miter;stroke-opacity:1"
       d="m 428.35434,231.74321 -0.17857,-1.25 -0.17858,-24.64285 6.07143,0.17857 8.92857,21.07143 0.53572,-21.25 6.60714,0.53571 -1.25,25.89286 -9.64286,-0.35714 -6.60714,-16.96429 0.71429,16.42857 z"
       id="path910"
       inkscape:connector-curvature="0" />
    <path
       style="fill:#000000;fill-opacity:1;stroke:none;stroke-opacity:1"
       d="m 452.54174,226.85329 5.63207,-4.44637 4.44637,4.14994 4.94042,-2.17378 -1.38332,-3.06305 -8.00347,-1.38332 -2.86544,-3.85352 -1.77854,-6.12611 6.71896,-5.43445 12.44983,2.07497 2.27259,5.43445 -0.59285,4.94042 -3.45829,-0.29643 5.63208,5.33565 1.58093,5.23683 -2.27259,7.60824 -12.94389,2.37139 -5.73087,-4.14994 z"
       id="path938"
       inkscape:connector-curvature="0"
       sodipodi:nodetypes="ccccccccccccccccccc" />
    <path
       style="fill:#fbf700;fill-opacity:1;stroke:none;stroke-width:1px;stroke-linecap:butt;stroke-linejoin:miter;stroke-opacity:1"
       d="m 453.71148,226.92179 4.10714,-3.39286 4.82143,4.28571 7.5,-4.10714 -5.89286,-5.71429 -8.03571,-1.78571 -1.78571,-6.07143 5.89285,-4.64286 11.42857,1.78572 -0.71428,4.28571 -8.92857,-0.17857 -0.35715,1.78572 5.35715,1.25 8.21428,8.03571 -3.03571,7.67857 -11.60714,1.96429 z"
       id="path912"
       inkscape:connector-curvature="0" />
    <path
       style="fill:#000000;fill-opacity:1;stroke:none;stroke-opacity:1"
       d="m 475.86049,203.63335 1.08689,20.65093 0.59285,1.2845 1.08689,6.32373 4.24875,5.23684 h 7.90466 l -0.29642,-6.52135 -1.67976,-1.97616 1.58094,0.0988 -1.38332,-20.65093 -4.34756,-6.42253 z"
       id="path936"
       inkscape:connector-curvature="0"
       sodipodi:nodetypes="cccccccccccc" />
    <path
       style="fill:#fbf700;fill-opacity:1;stroke:none;stroke-width:1px;stroke-linecap:butt;stroke-linejoin:miter;stroke-opacity:1"
       d="m 476.7472,204.42179 1.25,19.64286 7.5,-0.53572 -1.25,-20.71428 z"
       id="path914"
       inkscape:connector-curvature="0" />
    <path
       style="fill:#fbf700;fill-opacity:1;stroke:none;stroke-width:1px;stroke-linecap:butt;stroke-linejoin:miter;stroke-opacity:1"
       d="m 478.35434,226.56464 7.67857,-0.35714 v 5.35714 l -6.96428,-0.17857 z"
       id="path916"
       inkscape:connector-curvature="0"
       sodipodi:nodetypes="ccccc" />
  </g>
</svg>
