<?xml version="1.0" encoding="UTF-8" standalone="no"?>
<!-- Created with Inkscape (http://www.inkscape.org/) -->

<svg
   xmlns:dc="http://purl.org/dc/elements/1.1/"
   xmlns:cc="http://creativecommons.org/ns#"
   xmlns:rdf="http://www.w3.org/1999/02/22-rdf-syntax-ns#"
   xmlns:svg="http://www.w3.org/2000/svg"
   xmlns="http://www.w3.org/2000/svg"
   xmlns:sodipodi="http://sodipodi.sourceforge.net/DTD/sodipodi-0.dtd"
   xmlns:inkscape="http://www.inkscape.org/namespaces/inkscape"
   width="600"
   height="400"
   viewBox="0 0 600 400"
   version="1.1"
   id="svg8"
   inkscape:version="0.92.3 (2405546, 2018-03-11)"
   sodipodi:docname="background.svg">
  <defs
     id="defs2" />
  <sodipodi:namedview
     id="base"
     pagecolor="#1d1d1d"
     bordercolor="#666666"
     borderopacity="1.0"
     inkscape:pageopacity="0"
     inkscape:pageshadow="2"
     inkscape:zoom="3.2857153"
     inkscape:cx="251.51451"
     inkscape:cy="182.35103"
     inkscape:document-units="px"
     inkscape:current-layer="layer1"
     showgrid="true"
     units="px"
     inkscape:window-width="2493"
     inkscape:window-height="1374"
     inkscape:window-x="67"
     inkscape:window-y="27"
     inkscape:window-maximized="1"
     inkscape:pagecheckerboard="false"
     inkscape:snap-global="true">
    <inkscape:grid
       type="xygrid"
       id="grid815"
       spacingx="2.5"
       spacingy="2.5" />
  </sodipodi:namedview>
  <metadata
     id="metadata5">
    <rdf:RDF>
      <cc:Work
         rdf:about="">
        <dc:format>image/svg+xml</dc:format>
        <dc:type
           rdf:resource="http://purl.org/dc/dcmitype/StillImage" />
        <dc:title />
      </cc:Work>
    </rdf:RDF>
  </metadata>
  <g
     inkscape:label="Layer 1"
     inkscape:groupmode="layer"
     id="layer1"
     transform="translate(0,-249.99998)">
    <rect
       style="fill:#c2ecff;fill-opacity:1;stroke:#ffffff;stroke-opacity:1"
       id="rect872-7"
       width="10"
       height="110.00002"
       x="195"
       y="429.99997"
       ry="5" />
    <rect
       style="fill:#a5a5a5;fill-opacity:1;stroke:none;stroke-opacity:1"
       id="rect837"
       width="150"
       height="100"
       x="450"
       y="249.99998" />
    <rect
       style="fill:#a5a5a5;fill-opacity:1;stroke:none;stroke-opacity:1"
       id="rect839"
       width="150"
       height="100"
       x="0"
       y="550" />
    <rect
       style="fill:#a5a5a5;fill-opacity:1;stroke:none;stroke-opacity:1"
       id="rect841"
       width="150"
       height="100"
       x="0"
       y="249.99998" />
    <rect
       style="fill:#bdbdbd;fill-opacity:1;stroke:none;stroke-opacity:1"
       id="rect843"
       width="150"
       height="100"
       x="450"
       y="550" />
    <rect
       style="fill:#585858;fill-opacity:1;stroke:none;stroke-opacity:1"
       id="rect845"
       width="150"
       height="200"
       x="450"
       y="349.99997" />
    <rect
       style="fill:#585858;fill-opacity:1;stroke:none;stroke-opacity:1"
       id="rect847"
       width="300"
       height="100"
       x="150"
       y="249.99998" />
    <rect
       style="fill:#585858;fill-opacity:1;stroke:none;stroke-opacity:1"
       id="rect849"
       width="150"
       height="200"
       x="0"
       y="349.99997" />
    <rect
       style="fill:#585858;fill-opacity:1;stroke:none;stroke-opacity:1"
       id="rect851"
       width="300"
       height="100"
       x="150"
       y="550" />
    <rect
       style="fill:#c2ecff;fill-opacity:1;stroke:#ffffff;stroke-opacity:1"
       id="rect872"
       width="90"
       height="10"
       x="155"
       y="535"
       ry="5" />
    <rect
       rx="5"
       style="fill:#c2ecff;fill-opacity:1;stroke:#ffffff;stroke-opacity:1"
       id="rect872-7-3"
       width="10"
       height="110.00002"
       x="295"
       y="429.99994"
       ry="5" />
    <rect
       style="fill:#c2ecff;fill-opacity:1;stroke:#ffffff;stroke-opacity:1"
       id="rect872-3"
       width="90"
       height="10"
       x="255"
       y="535"
       ry="5" />
    <rect
       rx="5"
       style="fill:#c2ecff;fill-opacity:1;stroke:#ffffff;stroke-opacity:1"
       id="rect872-7-6"
       width="10"
       height="110.00002"
       x="395"
       y="429.99994"
       ry="5" />
    <rect
       style="fill:#c2ecff;fill-opacity:1;stroke:#ffffff;stroke-opacity:1"
       id="rect872-6"
       width="90"
       height="10"
       x="355"
       y="535"
       ry="5" />
    <rect
       rx="10"
       style="display:none;fill:#ff0101;fill-opacity:1;stroke:#ffffff;stroke-opacity:1"
       id="rect872-5"
       width="90"
       height="20.000019"
       x="155"
       y="514.99994"
       ry="10.00001" />
    <rect
       rx="10"
       style="display:none;fill:#ffc001;fill-opacity:1;stroke:#ffffff;stroke-opacity:1"
       id="rect872-5-6"
       width="80"
       height="20.000011"
       x="160"
       y="494.99997"
       ry="9.5158014" />
    <rect
       rx="10"
       style="display:none;fill:#fffc01;fill-opacity:1;stroke:#ffffff;stroke-opacity:1"
       id="rect872-5-6-2"
       width="70"
       height="19.999989"
       x="165"
       y="474.99997"
       ry="9.5158014" />
    <rect
       rx="10"
       style="display:none;fill:#01ff43;fill-opacity:1;stroke:#ffffff;stroke-opacity:1"
       id="rect872-5-6-2-9"
       width="60"
       height="19.999989"
       x="170"
       y="454.99997"
       ry="9.5158014" />
    <rect
       rx="10"
       style="display:none;fill:#01b4ff;fill-opacity:1;stroke:#ffffff;stroke-opacity:1"
       id="rect872-5-6-2-9-1"
       width="50"
       height="19.999989"
       x="175"
       y="434.99997"
       ry="9.5158014" />
    <path
       style="fill:#585858;fill-opacity:1;stroke:#ffffff;stroke-opacity:1"
       d="m 285,377.49998 c 0.007,-4.27149 1.83515,-8.3373 5.0254,-11.17773 l -1.89504,5.04288 3.19104,0.91142 c -0.44612,1.1511 -1.32086,3.9889 -1.3214,5.22343 0,5.52285 4.47715,10 10,10 5.52285,0 10,-4.47715 10,-10 0,-5.52285 -4.47715,-10 -10,-10 -0.40627,0.003 -0.81198,0.0313 -1.21483,0.084 l 2.36523,4.96485 -11.19142,-2.36914 4.62696,-11.4043 1.97071,4.13672 c 1.12799,-0.27004 2.2835,-0.40833 3.44335,-0.41211 8.28427,0 15,6.71573 15,15 0,8.28427 -6.71573,15 -15,15 -8.28426,0 -15,-6.71573 -15,-15 z"
       id="path999"
       inkscape:connector-curvature="0"
       sodipodi:nodetypes="cccccsscccccccssc" />
    <path
       style="display:none;fill:#b08300;fill-opacity:1;stroke:#ffffff;stroke-opacity:1"
       d="m 300,414.99998 a 37.5,15 0 0 0 -37.5,15 v 0.20117 a 17.5,17.5 0 0 0 -15,17.29883 17.5,17.5 0 0 0 17.5,17.5 17.5,17.5 0 0 0 5.9668,-1.07227 37.5,30 0 0 0 25.43164,10.90625 A 27.5,32.5 0 0 1 282.5,500.76951 v 9.23047 h 35 v -9.20703 a 27.5,32.5 0 0 1 -13.9082,-25.9375 37.5,30 0 0 0 25.46093,-10.91406 17.5,17.5 0 0 0 5.94727,1.05859 17.5,17.5 0 0 0 17.5,-17.5 17.5,17.5 0 0 0 -15,-17.30469 v -0.19531 a 37.5,15 0 0 0 -37.5,-15 z m 37.5,20.25391 a 12.5,12.5 0 0 1 10,12.24609 12.5,12.5 0 0 1 -12.5,12.5 12.5,12.5 0 0 1 -2.41016,-0.23828 37.5,30 0 0 0 4.91016,-14.76172 z m -75,0.0117 v 9.73438 a 37.5,30 0 0 0 4.89844,14.75781 12.5,12.5 0 0 1 -2.39844,0.24219 12.5,12.5 0 0 1 -12.5,-12.5 12.5,12.5 0 0 1 10,-12.23438 z"
       id="path1012"
       inkscape:connector-curvature="0" />
  </g>
</svg>
